<?xml version="1.0" encoding="UTF-8" standalone="no"?>
<svg
   xmlns:dc="http://purl.org/dc/elements/1.1/"
   xmlns:cc="http://creativecommons.org/ns#"
   xmlns:rdf="http://www.w3.org/1999/02/22-rdf-syntax-ns#"
   xmlns:svg="http://www.w3.org/2000/svg"
   xmlns="http://www.w3.org/2000/svg"
   xmlns:xlink="http://www.w3.org/1999/xlink"
   xmlns:sodipodi="http://sodipodi.sourceforge.net/DTD/sodipodi-0.dtd"
   xmlns:inkscape="http://www.inkscape.org/namespaces/inkscape"
   height="294.53754"
   width="278.82083"
   inkscape:version="1.0 (6e3e5246a0, 2020-05-07)"
   inkscape:output_extension="org.inkscape.output.svg.inkscape"
   version="1.0"
   sodipodi:version="0.32"
   viewBox="0 0 278.82083 294.53754"
   sodipodi:docname="apple.svg"
   id="svg2">
  <sodipodi:namedview
     fit-margin-bottom="0"
     fit-margin-right="0"
     fit-margin-left="0"
     fit-margin-top="0"
     inkscape:document-rotation="0"
     inkscape:window-width="1920"
     inkscape:pageopacity="0.0"
     showgrid="false"
     inkscape:window-height="1007"
     inkscape:window-x="0"
     inkscape:window-y="25"
     inkscape:cy="122.99704"
     inkscape:cx="26.660837"
     inkscape:current-layer="svg2"
     borderopacity="1.0"
     objecttolerance="10.0"
     inkscape:zoom="1.3275862"
     gridtolerance="10.0"
     pagecolor="#ffffff"
     guidetolerance="10.0"
     inkscape:pageshadow="2"
     bordercolor="#666666"
     id="base" />
  <defs
     id="defs5">
    <pattern
       patternTransform="matrix(2.9693,0,0,2.9693,-46.951348,-14.119307)"
       id="pattern1466"
       xlink:href="#Polkadots-medwhite"
       inkscape:collect="always" />
    <pattern
       inkscape:collect="always"
       inkscape:stockid="Polka dots, medium white"
       patternTransform="scale(2.9693)"
       patternUnits="userSpaceOnUse"
       width="10"
       height="10"
       id="Polkadots-medwhite">
      <circle
         style="fill:white"
         r=".15"
         cy=".81"
         cx="2.567"
         id="circle4458" />
      <circle
         style="fill:white"
         r=".15"
         cy="2.33"
         cx="3.048"
         id="circle4460" />
      <circle
         style="fill:white"
         r=".15"
         cy="2.415"
         cx="4.418"
         id="circle4462" />
      <circle
         style="fill:white"
         r=".15"
         cy="3.029"
         cx="1.844"
         id="circle4464" />
      <circle
         style="fill:white"
         r=".15"
         cy="1.363"
         cx="6.08"
         id="circle4466" />
      <circle
         style="fill:white"
         r=".15"
         cy="4.413"
         cx="5.819"
         id="circle4468" />
      <circle
         style="fill:white"
         r=".15"
         cy="4.048"
         cx="4.305"
         id="circle4470" />
      <circle
         style="fill:white"
         r=".15"
         cy="3.045"
         cx="5.541"
         id="circle4472" />
      <circle
         style="fill:white"
         r=".15"
         cy="5.527"
         cx="4.785"
         id="circle4474" />
      <circle
         style="fill:white"
         r=".15"
         cy="5.184"
         cx="2.667"
         id="circle4476" />
      <circle
         style="fill:white"
         r=".15"
         cy="1.448"
         cx="7.965"
         id="circle4478" />
      <circle
         style="fill:white"
         r=".15"
         cy="5.049"
         cx="7.047"
         id="circle4480" />
      <circle
         style="fill:white"
         r=".15"
         cy=".895"
         cx="4.34"
         id="circle4482" />
      <circle
         style="fill:white"
         r=".15"
         cy=".34"
         cx="7.125"
         id="circle4484" />
      <circle
         style="fill:white"
         r=".15"
         cy="1.049"
         cx="9.553"
         id="circle4486" />
      <circle
         style="fill:white"
         r=".15"
         cy="2.689"
         cx="7.006"
         id="circle4488" />
      <circle
         style="fill:white"
         r=".15"
         cy="2.689"
         cx="8.909"
         id="circle4490" />
      <circle
         style="fill:white"
         r=".15"
         cy="4.407"
         cx="9.315"
         id="circle4492" />
      <circle
         style="fill:white"
         r=".15"
         cy="3.87"
         cx="7.82"
         id="circle4494" />
      <circle
         style="fill:white"
         r=".15"
         cy="5.948"
         cx="8.27"
         id="circle4496" />
      <circle
         style="fill:white"
         r=".15"
         cy="7.428"
         cx="7.973"
         id="circle4498" />
      <circle
         style="fill:white"
         r=".15"
         cy="8.072"
         cx="9.342"
         id="circle4500" />
      <circle
         style="fill:white"
         r=".15"
         cy="9.315"
         cx="8.206"
         id="circle4502" />
      <circle
         style="fill:white"
         r=".15"
         cy="9.475"
         cx="9.682"
         id="circle4504" />
      <circle
         style="fill:white"
         r=".15"
         cy="6.186"
         cx="9.688"
         id="circle4506" />
      <circle
         style="fill:white"
         r=".15"
         cy="6.296"
         cx="3.379"
         id="circle4508" />
      <circle
         style="fill:white"
         r=".15"
         cy="8.204"
         cx="2.871"
         id="circle4510" />
      <circle
         style="fill:white"
         r=".15"
         cy="8.719"
         cx="4.59"
         id="circle4512" />
      <circle
         style="fill:white"
         r=".15"
         cy="9.671"
         cx="3.181"
         id="circle4514" />
      <circle
         style="fill:white"
         r=".15"
         cy="7.315"
         cx="5.734"
         id="circle4516" />
      <circle
         style="fill:white"
         r=".15"
         cy="6.513"
         cx="6.707"
         id="circle4518" />
      <circle
         style="fill:white"
         r=".15"
         cy="9.67"
         cx="5.73"
         id="circle4520" />
      <circle
         style="fill:white"
         r=".15"
         cy="8.373"
         cx="6.535"
         id="circle4522" />
      <circle
         style="fill:white"
         r=".15"
         cy="7.154"
         cx="4.37"
         id="circle4524" />
      <circle
         style="fill:white"
         r=".15"
         cy="7.25"
         cx=".622"
         id="circle4526" />
      <circle
         style="fill:white"
         r=".15"
         cy="5.679"
         cx=".831"
         id="circle4528" />
      <circle
         style="fill:white"
         r=".15"
         cy="8.519"
         cx="1.257"
         id="circle4530" />
      <circle
         style="fill:white"
         r=".15"
         cy="6.877"
         cx="1.989"
         id="circle4532" />
      <circle
         style="fill:white"
         r=".15"
         cy="3.181"
         cx=".374"
         id="circle4534" />
      <circle
         style="fill:white"
         r=".15"
         cy="1.664"
         cx="1.166"
         id="circle4536" />
      <circle
         style="fill:white"
         r=".15"
         cy=".093"
         cx="1.151"
         id="circle4538" />
      <circle
         style="fill:white"
         r=".15"
         cy="10.093"
         cx="1.151"
         id="circle4540" />
      <circle
         style="fill:white"
         r=".15"
         cy="4.451"
         cx="1.302"
         id="circle4542" />
      <circle
         style="fill:white"
         r=".15"
         cy="3.763"
         cx="3.047"
         id="circle4544" />
    </pattern>
    <linearGradient
       id="linearGradient3680">
      <stop
         offset="0"
         style="stop-color:#000000"
         id="stop3682" />
      <stop
         offset="1"
         style="stop-color:#000000;stop-opacity:0"
         id="stop3684" />
    </linearGradient>
    <radialGradient
       inkscape:collect="always"
       r="114.48"
       gradientTransform="matrix(1.0056,0.031239,-0.025093,0.80775,-45.206848,8.8326927)"
       cx="177.42999"
       cy="105.88"
       gradientUnits="userSpaceOnUse"
       id="radialGradient3180">
      <stop
         offset="0"
         style="stop-color:#b91f39"
         id="stop3168" />
      <stop
         offset="1"
         style="stop-color:#52000e"
         id="stop3170" />
    </radialGradient>
    <linearGradient
       gradientTransform="translate(-46.951348,-14.119307)"
       inkscape:collect="always"
       x1="256.48001"
       y1="259.87"
       x2="196.24001"
       gradientUnits="userSpaceOnUse"
       y2="234.06"
       id="linearGradient3664">
      <stop
         offset="0"
         style="stop-color:#ffffff"
         id="stop3674" />
      <stop
         offset="1"
         style="stop-color:#ffffff;stop-opacity:0"
         id="stop3676" />
    </linearGradient>
    <linearGradient
       gradientTransform="translate(-46.951348,-14.119307)"
       inkscape:collect="always"
       x1="153.8"
       y1="308.72"
       x2="153.8"
       gradientUnits="userSpaceOnUse"
       xlink:href="#linearGradient3680"
       y2="294.22"
       id="linearGradient3686" />
    <linearGradient
       gradientTransform="translate(-46.951348,-14.119307)"
       inkscape:collect="always"
       x1="44.569"
       y1="237.99001"
       x2="106.02"
       gradientUnits="userSpaceOnUse"
       y2="237.99001"
       id="linearGradient3704">
      <stop
         offset="0"
         style="stop-color:#ffffff"
         id="stop3700" />
      <stop
         offset="1"
         style="stop-color:#000000"
         id="stop3702" />
    </linearGradient>
    <linearGradient
       gradientTransform="translate(-46.951348,-14.119307)"
       inkscape:collect="always"
       x1="159.94"
       y1="96.934998"
       x2="159.72"
       gradientUnits="userSpaceOnUse"
       y2="91.098"
       id="linearGradient4023">
      <stop
         offset="0"
         style="stop-color:#ffffff"
         id="stop4019" />
      <stop
         offset="1"
         style="stop-color:#ffffff;stop-opacity:0"
         id="stop4021" />
    </linearGradient>
    <filter
       inkscape:collect="always"
       id="filter4073">
      <feGaussianBlur
         inkscape:collect="always"
         stdDeviation="0.56748222"
         id="feGaussianBlur4075" />
    </filter>
    <filter
       inkscape:collect="always"
       id="filter4115">
      <feGaussianBlur
         inkscape:collect="always"
         stdDeviation="0.48343884"
         id="feGaussianBlur4117" />
    </filter>
    <linearGradient
       gradientTransform="translate(-46.951348,-14.119307)"
       inkscape:collect="always"
       x1="143.82001"
       y1="70.302002"
       x2="154.12"
       gradientUnits="userSpaceOnUse"
       y2="95.473999"
       id="linearGradient3361">
      <stop
         offset="0"
         style="stop-color:#694c4d"
         id="stop3357" />
      <stop
         offset="1"
         style="stop-color:#121212"
         id="stop3359" />
    </linearGradient>
    <filter
       inkscape:collect="always"
       id="filter5119">
      <feGaussianBlur
         inkscape:collect="always"
         stdDeviation="0.57048033"
         id="feGaussianBlur5121" />
    </filter>
    <linearGradient
       gradientTransform="translate(-46.951348,-14.119307)"
       inkscape:collect="always"
       x1="203.14"
       y1="73.135002"
       x2="215.05"
       gradientUnits="userSpaceOnUse"
       y2="55.433998"
       id="linearGradient5131">
      <stop
         offset="0"
         style="stop-color:#446a22"
         id="stop5127" />
      <stop
         offset="1"
         style="stop-color:#446a22;stop-opacity:0"
         id="stop5129" />
    </linearGradient>
    <radialGradient
       inkscape:collect="always"
       r="17.181999"
       gradientTransform="matrix(0.69552,-0.35482,0.39456,0.77343,22.480652,87.380693)"
       cx="258.54999"
       cy="45.333"
       gradientUnits="userSpaceOnUse"
       id="radialGradient5141">
      <stop
         offset="0"
         style="stop-color:#415d28"
         id="stop5137" />
      <stop
         offset="1"
         style="stop-color:#415d28;stop-opacity:0"
         id="stop5139" />
    </radialGradient>
    <linearGradient
       gradientTransform="translate(-46.951348,-14.119307)"
       inkscape:collect="always"
       x1="132.38"
       y1="93.052002"
       x2="102.06"
       gradientUnits="userSpaceOnUse"
       y2="82.311996"
       id="linearGradient5151">
      <stop
         offset="0"
         style="stop-color:#ffffff"
         id="stop5147" />
      <stop
         offset="1"
         style="stop-color:#ffffff;stop-opacity:0"
         id="stop5149" />
    </linearGradient>
    <linearGradient
       gradientTransform="translate(-46.951348,-14.119307)"
       inkscape:collect="always"
       x1="153.78999"
       y1="187.25"
       x2="154.84"
       gradientUnits="userSpaceOnUse"
       y2="355.98001"
       id="linearGradient5159">
      <stop
         offset="0"
         style="stop-color:#ffffff"
         id="stop5155" />
      <stop
         offset="1"
         style="stop-color:#ffffff;stop-opacity:0"
         id="stop5157" />
    </linearGradient>
    <linearGradient
       gradientTransform="translate(-46.951348,-14.119307)"
       inkscape:collect="always"
       x1="182.82001"
       y1="111.95"
       x2="229.53"
       gradientUnits="userSpaceOnUse"
       y2="150.28999"
       id="linearGradient5119">
      <stop
         offset="0"
         style="stop-color:#ffffff"
         id="stop3257" />
      <stop
         offset="1"
         style="stop-color:#ffffff;stop-opacity:0"
         id="stop3259" />
    </linearGradient>
    <linearGradient
       gradientTransform="translate(-46.951348,-14.119307)"
       inkscape:collect="always"
       x1="226.63"
       y1="41.407001"
       x2="246.61"
       gradientUnits="userSpaceOnUse"
       y2="41.407001"
       id="linearGradient3365">
      <stop
         offset="0"
         style="stop-color:#ffffff"
         id="stop3361" />
      <stop
         offset="1"
         style="stop-color:#ffffff;stop-opacity:0"
         id="stop3363" />
    </linearGradient>
    <linearGradient
       gradientTransform="translate(-46.951348,-14.119307)"
       inkscape:collect="always"
       x1="202.47"
       y1="55.588001"
       x2="215.31"
       gradientUnits="userSpaceOnUse"
       y2="55.588001"
       id="linearGradient3373">
      <stop
         offset="0"
         style="stop-color:#ffffff"
         id="stop3369" />
      <stop
         offset="1"
         style="stop-color:#ffffff;stop-opacity:0"
         id="stop3371" />
    </linearGradient>
    <linearGradient
       gradientTransform="translate(-46.951348,-14.119307)"
       inkscape:collect="always"
       x1="254.02"
       y1="35.015999"
       x2="272.04001"
       gradientUnits="userSpaceOnUse"
       y2="35.015999"
       id="linearGradient3381">
      <stop
         offset="0"
         style="stop-color:#ffffff"
         id="stop3377" />
      <stop
         offset="1"
         style="stop-color:#ffffff;stop-opacity:0"
         id="stop3379" />
    </linearGradient>
    <linearGradient
       gradientTransform="translate(-46.951348,-14.119307)"
       inkscape:collect="always"
       x1="223.48"
       y1="60.587002"
       x2="258"
       gradientUnits="userSpaceOnUse"
       y2="60.587002"
       id="linearGradient3389">
      <stop
         offset="0"
         style="stop-color:#ffffff"
         id="stop3385" />
      <stop
         offset="1"
         style="stop-color:#ffffff;stop-opacity:0"
         id="stop3387" />
    </linearGradient>
    <linearGradient
       gradientTransform="translate(-46.951348,-14.119307)"
       inkscape:collect="always"
       x1="199.32001"
       y1="89.165001"
       x2="196.53999"
       gradientUnits="userSpaceOnUse"
       y2="54.543999"
       id="linearGradient3399">
      <stop
         offset="0"
         style="stop-color:#6c3636"
         id="stop3395" />
      <stop
         offset="1"
         style="stop-color:#ffffff;stop-opacity:0"
         id="stop3397" />
    </linearGradient>
  </defs>
  <path
     d="m 145.87865,57.062693 c 0,0 -6.02,-13.935 -3.01,-19.961 3.01,-6.026 15.06,-8.663 18.08,-9.792 3.01,-1.13 3.39,2.259 9.41,0.376 6.03,-1.883 18.46,-15.818 17.33,-12.428 -1.13,3.389 8.66,-6.7800003 9.41,-4.896 0.76,1.883 12.05,-5.2730003 12.43,-2.6370003 0.38,2.6370003 12.43,0.753 12.43,0.753 l 6.78,3.0130003 c 0,0 5.27,1.884 7.91,-2.2590003 2.63,-4.143 10.54,-1.13 13.18,-2.26 2.64,-1.13 19.21,-2.26 16.19,0 -3.01,2.26 -8.28,7.1560003 -8.28,7.1560003 0,0 -13.18,3.013 -18.08,5.649 -4.9,2.636 -13.18,4.896 -13.18,4.896 0,0 -3.39,18.455 -11.3,21.091 -7.91,2.636 -41.81,6.026 -45.19,7.533 -3.39,1.506 -23.36,9.039 -23.36,9.039 z"
     style="fill:#6aa23f;fill-rule:evenodd"
     id="path5012" />
  <path
     d="m 55.868652,289.82069 c -15.138,-12.84 -70.188,-95.08 -52.3520005,-168.73 C 10.730652,91.290693 38.921652,67.262693 54.738652,65.724693 c 27.12,-2.636 48.579998,6.403 70.429998,5.65 21.84,-0.754 39.54,-5.65 49.33,-3.39 9.8,2.26 40.85,5.604 51.98,68.925997 5.84,33.23 -5.73,52.43 -30.13,103.19 -11.29,23.49 -33.52,51.6 -49.34,52.35 -15.82,0.75 -14.45,-5.27 -21.84,-6.02 -5.62,-0.58 -16.55,7.86 -28.629998,5.27 -5.27,-1.13 -5.99,-5.81 -10.17,-5.65 -4.75,0.18 -16.61,15.54 -30.5,3.77 z"
     style="fill:url(#radialGradient3180);fill-rule:evenodd"
     sodipodi:nodetypes="csssssssssss"
     id="path2384" />
  <path
     d="m 97.998652,80.977693 5.839998,0.189 c -2.08,-5.143 -6.949998,-8.195 -11.779998,-12.046 0,0 -3.91,-1.539 -6.28,-2.084 -3.31,-0.76 -16.54,-1.718 -16.54,-1.718 9.52,2.356 25.46,7.868 28.76,15.659 z"
     style="opacity:0.60256;fill:#000000;fill-rule:evenodd;filter:url(#filter4115)"
     sodipodi:nodetypes="cccscc"
     id="path4077" />
  <path
     d="m 84.868652,80.036693 c 4.47,1.002 10.29,1.856 32.289998,1.789 10.26,-0.032 21.71,-1.648 28.34,-3.672 l 0.76,-3.767 -36.53,-2.259 -20.339998,3.389 z"
     style="fill:url(#linearGradient4023);fill-rule:evenodd"
     sodipodi:nodetypes="csccccc"
     id="path4015" />
  <path
     d="m 107.61865,93.380693 c -3.47,1.58 -4.78,6.02 -3.68,9.489997 -4.009998,0.07 -6.439998,4.43 -6.249998,8.07 1.88,2.99 6.269998,6.53 9.559998,3.53 3.85,-2.38 7.4,1.36 9.04,4.52 1.16,3.66 4.87,5.21 8.11,6.43 2.68,0.15 4.9,-2.57 7.32,-0.06 2.54,2.62 6,-0.39 8.14,2.65 3.91,3.14 3.26,-3.61 5.8,-4.88 2.64,-2.14 5.87,-3.53 8.08,-6.19 2.82,-3.13 6.41,0.75 9.61,1.23 3.09,2.28 7.8,1.55 8.84,-2.55 0.13,-2.77 1.94,-5.06 1.86,-7.88 0.08,-5.31 -5.09,-9.399997 -4.01,-14.809997 -2.97,-2.5 -6.98,-0.37 -10.27,0.2 -3.74,1.3 -7.66,2.19 -11.14,4.15 -2.92,0.62 -5.46,-1.83 -8.43,-1.53 -3.25,0.65 -6.43,-0.08 -9.44,-1.35 -3.3,-0.79 -5.96,-2.02 -8.5,-4.04 -3.92,-1.01 -1.21,5.46 -5.21,5.64 -4.19,1.73 -4.55,-5.29 -8.97,-3.28 -1.51,0.31 -4.62,2.28 -3.18,4.06"
     style="opacity:0.60684;fill:url(#linearGradient5119);fill-rule:evenodd"
     id="path2388" />
  <path
     d="m 145.87865,57.062693 c 0,0 -6.02,-13.935 -3.01,-19.961 3.01,-6.026 15.06,-8.663 18.08,-9.792 3.01,-1.13 3.39,2.259 9.41,0.376 6.03,-1.883 18.46,-15.818 17.33,-12.428 -1.13,3.389 8.66,-6.7800003 9.41,-4.896 0.76,1.883 12.05,-5.2730003 12.43,-2.6370003 0.38,2.6370003 12.43,0.753 12.43,0.753 l 6.78,3.0130003 c 0,0 5.27,1.884 7.91,-2.2590003 2.63,-4.143 10.54,-1.13 13.18,-2.26 2.64,-1.13 19.21,-2.26 16.19,0 -3.01,2.26 -8.28,7.1560003 -8.28,7.1560003 0,0 -13.18,3.013 -18.08,5.649 -4.9,2.636 -13.18,4.896 -13.18,4.896 0,0 -3.39,18.455 -11.3,21.091 -7.91,2.636 -41.81,6.026 -45.19,7.533 -3.39,1.506 -23.36,9.039 -23.36,9.039 z"
     style="fill:url(#pattern1466);fill-rule:evenodd;filter:url(#filter5119)"
     id="path2392" />
  <path
     d="m 193.68865,17.257693 c -1.13,3.389 8.66,-6.78 9.41,-4.896 0.76,1.883 12.05,-5.2730003 12.43,-2.6370003 0.38,2.6370003 11.68,12.8050003 11.68,12.8050003 l -8.67,22.221 z"
     style="opacity:0.66667;fill:url(#radialGradient5141);fill-rule:evenodd;filter:url(#filter5119)"
     sodipodi:nodetypes="cssccc"
     id="path5133" />
  <path
     d="m 145.87865,57.062693 c 0,0 -6.02,-13.935 -3.01,-19.961 3.01,-6.026 15.06,-8.663 18.08,-9.792 3.01,-1.13 3.39,2.259 9.41,0.376 l -0.37,25.611 c -3.39,1.506 -23.36,9.039 -23.36,9.039 z"
     style="fill:url(#linearGradient5131);fill-rule:evenodd"
     sodipodi:nodetypes="csscccc"
     id="path5123" />
  <path
     d="m 157.44865,52.787693 c 0,0 -3.73,-2.93 -0.8,-8.789 2.93,-5.859 11.71,-13.848 11.71,-13.848 0,0 -8.38,7.59 -10.52,17.177 -0.52,2.354 1.47,4.394 1.47,4.394 z"
     style="fill:url(#linearGradient3373);fill-rule:evenodd"
     sodipodi:nodetypes="cscscc"
     id="path2577" />
  <path
     d="m 101.99865,80.977693 8.1,0.377 -5.65,-26.175 c 0,0 -9.789998,-4.896 -10.169998,-1.883 -0.37,3.013 0.76,9.039 0.76,9.039 z"
     style="fill:url(#linearGradient3361);fill-rule:evenodd"
     sodipodi:nodetypes="cccscc"
     id="path2394" />
  <path
     d="m 53.688652,287.24069 c -15.138,-12.83 -56.8630005,-86.61 -52.5860005,-127.87 1.178,1.29 5.391,3.1 7.095,4.14 59.9110005,23.09 167.9899985,22.2 215.3199985,-21.62 0.85,-1.02 0.47,-0.78 1.01,-1.82 0.54,-1.04 1.31,-1.24 1.51,-2.3 5.84,33.23 -4.26,48.95 -28.66,99.72 -11.29,23.48 -34.99,52.34 -48.73,54.41 -15.66,2.36 -15.5,-5.13 -22.89,-5.89 -5.62,-0.57 -15.93,7.68 -25.939998,6.22 -5.34,-0.77 -8.87,-6.71 -13.05,-6.55 -4.76,0.18 -16.23,16.12 -30.12,4.35"
     style="opacity:0.1453;fill:url(#linearGradient5159);fill-rule:evenodd"
     sodipodi:nodetypes="ccccscssssss"
     id="path3182" />
  <path
     d="m 174.26865,168.41069 c 22.42,-6.66 40.6,-18.82 42.83,-21.04 0.69,-2.42 3.67,-24.46 -10.48,-45.7 -6.74,-10.119997 -25.58,-28.475997 -23.57,-29.479997 0.95,-0.471 29.36,22.44 32.56,29.269997 3.55,7.57 5.54,13.58 7,18.02 1.04,3.13 3.79,15.83 4.66,23.49 2.71,23.92 -3.09,43.55 -33.13,101.6 -1.54,2.99 -5.37,9.15 -9.17,15.32 -15.2,21.62 -27.11,30.99 -35.68,32.18 11.89,-7.35 18.15,-64.13 24.98,-123.66 z"
     style="opacity:0.75214;fill:url(#linearGradient3664);fill-rule:evenodd"
     sodipodi:nodetypes="ccssssssccc"
     id="path3184" />
  <path
     d="m 64.888652,294.46069 c -6.37,-0.66 -16.205,-10.5 -24.891,-24.46 49.071,11.14 80.620998,6.01 136.439998,0.32 -10.15,12.82 -20.16,21.48 -29.34,22.11 -15.8,1.08 -14.46,-5.25 -21.85,-6.01 -5.62,-0.57 -13.33,6.2 -25.679998,5.88 -7.81,-0.2 -8.91,-6.66 -13.09,-6.46 -3.73,0.17 -11.53,9.64 -21.59,8.62 z"
     style="opacity:0.62393;fill:url(#linearGradient3686);fill-rule:evenodd"
     sodipodi:nodetypes="cccsssss"
     id="path3678" />
  <path
     d="m 59.518652,287.67069 c 5.57,4.79 2.36,6.65 -3.86,2.01 -15.133,-12.83 -54.87800045,-77.56 -55.49700045,-131.07 1.17699995,1.3 2.70699995,0.93 4.15799995,2.1 1.45,1.16 2.174,1.76 3.878,2.8 1.704,1.04 5.2460005,1.67 7.1840005,2.58 12.387,35.25 10.272,65.53 44.137,121.58 z"
     style="opacity:0.28632;fill:url(#linearGradient3704);fill-rule:evenodd"
     sodipodi:nodetypes="cccsscc"
     id="path3688" />
  <path
     d="m 179.67865,42.001693 c 0,0 -0.13,-5.459 2.8,-11.318 2.93,-5.859 17.18,-18.11 17.18,-18.11 0,0 -16.12,14.248 -17.45,23.569 -0.34,2.387 -0.4,4.927 -0.4,4.927 z"
     style="fill:url(#linearGradient3365);fill-rule:evenodd"
     sodipodi:nodetypes="cscscc"
     id="path2585" />
  <path
     d="m 208.17865,30.150693 c 0,0 -2.67,-3.595 0.26,-9.454 2.93,-5.859 16.65,-9.055 16.65,-9.055 0,0 -14.38,3.329 -15.98,12.517 -0.41,2.376 1.07,4.927 1.07,4.927 z"
     style="fill:url(#linearGradient3381);fill-rule:evenodd"
     sodipodi:nodetypes="cscscc"
     id="path2583" />
  <path
     d="m 176.52865,45.650693 c 0,0 7.91,3.026 14.46,2.778 9.55,-0.361 20.06,-2.699 20.06,-2.699 0,0 -14.58,2.133 -24.17,1.099 -5.28,-0.569 -6.34,-2.336 -6.34,-2.336 z"
     style="fill:url(#linearGradient3389);fill-rule:evenodd"
     sodipodi:nodetypes="cscscc"
     id="path2581" />
  <path
     d="m 129.12865,81.164693 7.07,-0.801 c 0,0 -3.5,0.803 4.79,-9.366 8.28,-10.169 37.64,-28.202 48.18,-30.084 10.55,-1.883 23.16,-11.029 30.53,-18.326 -12.88,9.384 -25.68,16.913 -31.02,16.53 -5.04,-0.361 -36.76,16.175 -42.8,19.828 0,0 -14.31,18.078 -14.69,19.961 -0.37,1.883 -1.68,1.881 -2.06,2.258 z"
     style="fill:#ffffff;fill-rule:evenodd"
     sodipodi:nodetypes="ccsscscsc"
     id="path2390" />
  <g
     transform="translate(-46.951348,-14.119307)"
     id="g4897">
    <ellipse
       ry="1.5978776"
       rx="1.0652518"
       cy="127.75919"
       cx="112.38406"
       transform="matrix(0.875,0,0,0.54167,18.176,44.908)"
       style="opacity:0.38323;fill:#ffffff"
       id="path3706" />
    <ellipse
       ry="1.5978776"
       rx="1.0652518"
       cy="127.75919"
       cx="112.38406"
       transform="matrix(0.875,0,0,0.54167,16.045,65.414)"
       style="opacity:0.38323;fill:#ffffff"
       id="path3708" />
    <ellipse
       ry="1.5978776"
       rx="1.0652518"
       cy="127.75919"
       cx="112.38406"
       transform="matrix(0.875,0,0,0.54167,51.731,108.02)"
       style="opacity:0.38323;fill:#ffffff"
       id="path3710" />
    <ellipse
       ry="1.5978776"
       rx="1.0652518"
       cy="127.75919"
       cx="112.38406"
       transform="matrix(0.875,0,0,0.54167,-7.3902,100.57)"
       style="opacity:0.38323;fill:#ffffff"
       id="path3712" />
    <ellipse
       ry="1.5978776"
       rx="1.0652518"
       cy="127.75919"
       cx="112.38406"
       transform="matrix(0.875,0,0,0.54167,38.948,92.045)"
       style="opacity:0.38323;fill:#ffffff"
       id="path3714" />
    <ellipse
       ry="1.5978776"
       rx="1.0652518"
       cy="127.75919"
       cx="112.38406"
       transform="matrix(0.875,0,0,0.54167,18.176,114.95)"
       style="opacity:0.38323;fill:#ffffff"
       id="path3716" />
    <ellipse
       ry="1.5978776"
       rx="1.0652518"
       cy="127.75919"
       cx="112.38406"
       transform="matrix(0.875,0,0,0.54167,15.513,88.849)"
       style="opacity:0.38323;fill:#ffffff"
       id="path3718" />
    <ellipse
       ry="1.5978776"
       rx="1.0652518"
       cy="127.75919"
       cx="112.38406"
       transform="matrix(0.875,0,0,0.54167,26.176,134.91)"
       style="opacity:0.38323;fill:#ffffff"
       id="path3770" />
    <ellipse
       ry="1.5978776"
       rx="1.0652518"
       cy="127.75919"
       cx="112.38406"
       transform="matrix(0.875,0,0,0.54167,24.045,155.41)"
       style="opacity:0.38323;fill:#ffffff"
       id="path3772" />
    <ellipse
       ry="1.5978776"
       rx="1.0652518"
       cy="127.75919"
       cx="112.38406"
       transform="matrix(0.875,0,0,0.54167,59.731,198.02)"
       style="opacity:0.38323;fill:#ffffff"
       id="path3774" />
    <ellipse
       ry="1.5978776"
       rx="1.0652518"
       cy="127.75919"
       cx="112.38406"
       transform="matrix(0.875,0,0,0.54167,0.60982,190.57)"
       style="opacity:0.38323;fill:#ffffff"
       id="path3776" />
    <ellipse
       ry="1.5978776"
       rx="1.0652518"
       cy="127.75919"
       cx="112.38406"
       transform="matrix(0.875,0,0,0.54167,46.948,182.05)"
       style="opacity:0.38323;fill:#ffffff"
       id="path3778" />
    <ellipse
       ry="1.5978776"
       rx="1.0652518"
       cy="127.75919"
       cx="112.38406"
       transform="matrix(0.875,0,0,0.54167,26.176,204.95)"
       style="opacity:0.38323;fill:#ffffff"
       id="path3780" />
    <ellipse
       ry="1.5978776"
       rx="1.0652518"
       cy="127.75919"
       cx="112.38406"
       transform="matrix(0.875,0,0,0.54167,23.513,178.85)"
       style="opacity:0.38323;fill:#ffffff"
       id="path3782" />
    <ellipse
       ry="1.5978776"
       rx="1.0652518"
       cy="127.75919"
       cx="112.38406"
       transform="matrix(0.875,0,0,0.54167,84.176,68.908)"
       style="opacity:0.38323;fill:#ffffff"
       id="path3784" />
    <ellipse
       ry="1.5978776"
       rx="1.0652518"
       cy="127.75919"
       cx="112.38406"
       transform="matrix(0.875,0,0,0.54167,82.045,89.414)"
       style="opacity:0.38323;fill:#ffffff"
       id="path3786" />
    <ellipse
       ry="1.5978776"
       rx="1.0652518"
       cy="127.75919"
       cx="112.38406"
       transform="matrix(0.875,0,0,0.54167,117.73,132.02)"
       style="opacity:0.38323;fill:#ffffff"
       id="path3788" />
    <ellipse
       ry="1.5978776"
       rx="1.0652518"
       cy="127.75919"
       cx="112.38406"
       transform="matrix(0.875,0,0,0.54167,58.61,124.57)"
       style="opacity:0.38323;fill:#ffffff"
       id="path3790" />
    <ellipse
       ry="1.5978776"
       rx="1.0652518"
       cy="127.75919"
       cx="112.38406"
       transform="matrix(0.875,0,0,0.54167,104.95,116.05)"
       style="opacity:0.38323;fill:#ffffff"
       id="path3792" />
    <ellipse
       ry="1.5978776"
       rx="1.0652518"
       cy="127.75919"
       cx="112.38406"
       transform="matrix(0.875,0,0,0.54167,84.176,138.95)"
       style="opacity:0.38323;fill:#ffffff"
       id="path3794" />
    <ellipse
       ry="1.5978776"
       rx="1.0652518"
       cy="127.75919"
       cx="112.38406"
       transform="matrix(0.875,0,0,0.54167,81.513,112.85)"
       style="opacity:0.38323;fill:#ffffff"
       id="path3796" />
    <ellipse
       ry="1.5978776"
       rx="1.0652518"
       cy="127.75919"
       cx="112.38406"
       transform="matrix(0.875,0,0,0.54167,98.176,118.91)"
       style="opacity:0.38323;fill:#ffffff"
       id="path3798" />
    <ellipse
       ry="1.5978776"
       rx="1.0652518"
       cy="127.75919"
       cx="112.38406"
       transform="matrix(0.875,0,0,0.54167,96.045,139.41)"
       style="opacity:0.38323;fill:#ffffff"
       id="path3800" />
    <ellipse
       ry="1.5978776"
       rx="1.0652518"
       cy="127.75919"
       cx="112.38406"
       transform="matrix(0.875,0,0,0.54167,131.73,182.02)"
       style="opacity:0.38323;fill:#ffffff"
       id="path3802" />
    <ellipse
       ry="1.5978776"
       rx="1.0652518"
       cy="127.75919"
       cx="112.38406"
       transform="matrix(0.875,0,0,0.54167,72.61,174.57)"
       style="opacity:0.38323;fill:#ffffff"
       id="path3804" />
    <ellipse
       ry="1.5978776"
       rx="1.0652518"
       cy="127.75919"
       cx="112.38406"
       transform="matrix(0.875,0,0,0.54167,118.95,166.05)"
       style="opacity:0.38323;fill:#ffffff"
       id="path3806" />
    <ellipse
       ry="1.5978776"
       rx="1.0652518"
       cy="127.75919"
       cx="112.38406"
       transform="matrix(0.875,0,0,0.54167,98.176,188.95)"
       style="opacity:0.38323;fill:#ffffff"
       id="path3808" />
    <ellipse
       ry="1.5978776"
       rx="1.0652518"
       cy="127.75919"
       cx="112.38406"
       transform="matrix(0.875,0,0,0.54167,95.513,162.85)"
       style="opacity:0.38323;fill:#ffffff"
       id="path3810" />
    <ellipse
       ry="1.5978776"
       rx="1.0652518"
       cy="127.75919"
       cx="112.38406"
       transform="matrix(0.875,0,0,0.54167,114.05,19.414)"
       style="opacity:0.38323;fill:#ffffff"
       id="path3842" />
    <ellipse
       ry="1.5978776"
       rx="1.0652518"
       cy="127.75919"
       cx="112.38406"
       transform="matrix(0.875,0,0,0.54167,149.73,62.024)"
       style="opacity:0.38323;fill:#ffffff"
       id="path3844" />
    <ellipse
       ry="1.5978776"
       rx="1.0652518"
       cy="127.75919"
       cx="112.38406"
       transform="matrix(0.875,0,0,0.54167,90.61,54.567)"
       style="opacity:0.38323;fill:#ffffff"
       id="path3846" />
    <ellipse
       ry="1.5978776"
       rx="1.0652518"
       cy="127.75919"
       cx="112.38406"
       transform="matrix(0.875,0,0,0.54167,136.95,46.045)"
       style="opacity:0.38323;fill:#ffffff"
       id="path3848" />
    <ellipse
       ry="1.5978776"
       rx="1.0652518"
       cy="127.75919"
       cx="112.38406"
       transform="matrix(0.875,0,0,0.54167,116.18,68.948)"
       style="opacity:0.38323;fill:#ffffff"
       id="path3850" />
    <ellipse
       ry="1.5978776"
       rx="1.0652518"
       cy="127.75919"
       cx="112.38406"
       transform="matrix(0.875,0,0,0.54167,113.51,42.849)"
       style="opacity:0.38323;fill:#ffffff"
       id="path3852" />
    <ellipse
       ry="1.5978776"
       rx="1.0652518"
       cy="127.75919"
       cx="112.38406"
       transform="matrix(0.875,0,0,0.54167,124.18,88.908)"
       style="opacity:0.38323;fill:#ffffff"
       id="path3854" />
    <ellipse
       ry="1.5978776"
       rx="1.0652518"
       cy="127.75919"
       cx="112.38406"
       transform="matrix(0.875,0,0,0.54167,122.05,109.41)"
       style="opacity:0.38323;fill:#ffffff"
       id="path3856" />
    <ellipse
       ry="1.5978776"
       rx="1.0652518"
       cy="127.75919"
       cx="112.38406"
       transform="matrix(0.875,0,0,0.54167,157.73,152.02)"
       style="opacity:0.38323;fill:#ffffff"
       id="path3858" />
    <ellipse
       ry="1.5978776"
       rx="1.0652518"
       cy="127.75919"
       cx="112.38406"
       transform="matrix(0.875,0,0,0.54167,98.61,144.57)"
       style="opacity:0.38323;fill:#ffffff"
       id="path3860" />
    <ellipse
       ry="1.5978776"
       rx="1.0652518"
       cy="127.75919"
       cx="112.38406"
       transform="matrix(0.875,0,0,0.54167,144.95,136.05)"
       style="opacity:0.38323;fill:#ffffff"
       id="path3862" />
    <ellipse
       ry="1.5978776"
       rx="1.0652518"
       cy="127.75919"
       cx="112.38406"
       transform="matrix(0.875,0,0,0.54167,124.18,158.95)"
       style="opacity:0.38323;fill:#ffffff"
       id="path3864" />
    <ellipse
       ry="1.5978776"
       rx="1.0652518"
       cy="127.75919"
       cx="112.38406"
       transform="matrix(0.875,0,0,0.54167,121.51,132.85)"
       style="opacity:0.38323;fill:#ffffff"
       id="path3866" />
    <ellipse
       ry="1.5978776"
       rx="1.0652518"
       cy="127.75919"
       cx="112.38406"
       transform="matrix(0.875,0,0,0.54167,156.61,78.567)"
       style="opacity:0.38323;fill:#ffffff"
       id="path3874" />
    <ellipse
       ry="1.5978776"
       rx="1.0652518"
       cy="127.75919"
       cx="112.38406"
       transform="matrix(0.875,0,0,0.54167,-42.269,62.024)"
       style="opacity:0.38323;fill:#ffffff"
       id="path3900" />
    <ellipse
       ry="1.5978776"
       rx="1.0652518"
       cy="127.75919"
       cx="112.38406"
       transform="matrix(0.875,0,0,0.54167,-34.269,152.02)"
       style="opacity:0.38323;fill:#ffffff"
       id="path3914" />
    <ellipse
       ry="1.5978776"
       rx="1.0652518"
       cy="127.75919"
       cx="112.38406"
       transform="matrix(0.875,0,0,0.54167,-9.8241,22.908)"
       style="opacity:0.38323;fill:#ffffff"
       id="path3924" />
    <ellipse
       ry="1.5978776"
       rx="1.0652518"
       cy="127.75919"
       cx="112.38406"
       transform="matrix(0.875,0,0,0.54167,-11.955,43.414)"
       style="opacity:0.38323;fill:#ffffff"
       id="path3926" />
    <ellipse
       ry="1.5978776"
       rx="1.0652518"
       cy="127.75919"
       cx="112.38406"
       transform="matrix(0.875,0,0,0.54167,23.731,86.024)"
       style="opacity:0.38323;fill:#ffffff"
       id="path3928" />
    <ellipse
       ry="1.5978776"
       rx="1.0652518"
       cy="127.75919"
       cx="112.38406"
       transform="matrix(0.875,0,0,0.54167,-35.39,78.567)"
       style="opacity:0.38323;fill:#ffffff"
       id="path3930" />
    <ellipse
       ry="1.5978776"
       rx="1.0652518"
       cy="127.75919"
       cx="112.38406"
       transform="matrix(0.875,0,0,0.54167,10.948,70.045)"
       style="opacity:0.38323;fill:#ffffff"
       id="path3932" />
    <ellipse
       ry="1.5978776"
       rx="1.0652518"
       cy="127.75919"
       cx="112.38406"
       transform="matrix(0.875,0,0,0.54167,-9.8241,92.948)"
       style="opacity:0.38323;fill:#ffffff"
       id="path3934" />
    <ellipse
       ry="1.5978776"
       rx="1.0652518"
       cy="127.75919"
       cx="112.38406"
       transform="matrix(0.875,0,0,0.54167,-12.487,66.849)"
       style="opacity:0.38323;fill:#ffffff"
       id="path3936" />
    <ellipse
       ry="1.5978776"
       rx="1.0652518"
       cy="127.75919"
       cx="112.38406"
       transform="matrix(0.875,0,0,0.54167,4.1759,72.908)"
       style="opacity:0.38323;fill:#ffffff"
       id="path3938" />
    <ellipse
       ry="1.5978776"
       rx="1.0652518"
       cy="127.75919"
       cx="112.38406"
       transform="matrix(0.875,0,0,0.54167,2.0454,93.414)"
       style="opacity:0.38323;fill:#ffffff"
       id="path3940" />
    <ellipse
       ry="1.5978776"
       rx="1.0652518"
       cy="127.75919"
       cx="112.38406"
       transform="matrix(0.875,0,0,0.54167,37.731,136.02)"
       style="opacity:0.38323;fill:#ffffff"
       id="path3942" />
    <ellipse
       ry="1.5978776"
       rx="1.0652518"
       cy="127.75919"
       cx="112.38406"
       transform="matrix(0.875,0,0,0.54167,-21.39,128.57)"
       style="opacity:0.38323;fill:#ffffff"
       id="path3944" />
    <ellipse
       ry="1.5978776"
       rx="1.0652518"
       cy="127.75919"
       cx="112.38406"
       transform="matrix(0.875,0,0,0.54167,24.948,120.05)"
       style="opacity:0.38323;fill:#ffffff"
       id="path3946" />
    <ellipse
       ry="1.5978776"
       rx="1.0652518"
       cy="127.75919"
       cx="112.38406"
       transform="matrix(0.875,0,0,0.54167,4.1759,142.95)"
       style="opacity:0.38323;fill:#ffffff"
       id="path3948" />
    <ellipse
       ry="1.5978776"
       rx="1.0652518"
       cy="127.75919"
       cx="112.38406"
       transform="matrix(0.875,0,0,0.54167,1.5127,116.85)"
       style="opacity:0.38323;fill:#ffffff"
       id="path3950" />
  </g>
  <path
     d="m 76.398652,78.042693 c 0,0 6.59,3.124 22.4,3.5 15.819998,0.377 38.799998,0.754 46.329998,-3.389 7.53,-4.143 16.95,-9.039 16.95,-9.039"
     style="opacity:0.55128;fill:none;stroke:#ffffff;stroke-width:1px;filter:url(#filter4073)"
     sodipodi:nodetypes="cssc"
     id="path2386" />
  <path
     d="m 55.298652,75.257693 c 0,0 9.52,-0.727 23.88,4.133 2.51,0.51 5.8,0.969 8.14,0.951 -6.36,-10.764 -16.69,-13.391 -32.21,-13.747"
     style="opacity:0.55128;fill:url(#linearGradient5151);fill-rule:evenodd;filter:url(#filter4073)"
     sodipodi:nodetypes="cccc"
     id="path5143" />
  <path
     d="m 69.608652,76.314693 c 0,0 13.38,6.186 29.19,6.563 15.819998,0.376 38.799998,0.753 46.329998,-3.39 7.53,-4.143 17.08,-10.104 17.08,-10.104"
     style="opacity:0.68803;fill:none;stroke:#613636;stroke-width:1px;filter:url(#filter4073)"
     sodipodi:nodetypes="cssc"
     id="path3363" />
  <path
     d="m 226.41865,25.090693 c 0,0 -0.53,-10.519 7.72,-11.584 8.26,-1.066 8.13,1.198 11.19,0.399 3.06,-0.799 3.06,-2.796 6.52,-2.796 3.47,0 6.26,2.796 6.26,2.796 0,0 -17.04,4.261 -17.84,5.326 -0.8,1.066 -13.85,5.992 -13.85,5.859 z"
     style="opacity:0.40598;fill:#ffffff;fill-rule:evenodd"
     sodipodi:nodetypes="cssscsc"
     id="path3357" />
  <path
     d="m 129.12865,81.164693 7.07,-0.801 c 0,0 -3.5,0.803 4.79,-9.366 8.28,-10.169 37.64,-28.202 48.18,-30.084 10.55,-1.883 23.16,-11.029 30.53,-18.326 -12.88,9.384 -25.68,16.913 -31.02,16.53 -5.04,-0.361 -36.76,16.175 -42.8,19.828 0,0 -14.31,18.078 -14.69,19.961 -0.37,1.883 -1.68,1.881 -2.06,2.258 z"
     style="fill:url(#linearGradient3399);fill-rule:evenodd"
     sodipodi:nodetypes="ccsscscsc"
     id="path3391" />
  <metadata
     id="metadata1463">
    <rdf:RDF>
      <cc:Work>
        <dc:format>image/svg+xml</dc:format>
        <dc:type
           rdf:resource="http://purl.org/dc/dcmitype/StillImage" />
        <cc:license
           rdf:resource="http://creativecommons.org/publicdomain/zero/1.0/" />
        <dc:publisher>
          <cc:Agent
             rdf:about="http://openclipart.org/">
            <dc:title>Openclipart</dc:title>
          </cc:Agent>
        </dc:publisher>
        <dc:title>Apple</dc:title>
        <dc:date>2009-12-30T04:36:17</dc:date>
        <dc:description>Photorealistic apple. Can be used for thumbnails and for other purposes.</dc:description>
        <dc:source>https://openclipart.org/detail/28752/apple-by-prapanj</dc:source>
        <dc:creator>
          <cc:Agent>
            <dc:title>prapanj</dc:title>
          </cc:Agent>
        </dc:creator>
        <dc:subject>
          <rdf:Bag>
            <rdf:li>apple</rdf:li>
            <rdf:li>color</rdf:li>
            <rdf:li>food</rdf:li>
            <rdf:li>fruit</rdf:li>
            <rdf:li>how i did it</rdf:li>
            <rdf:li>photorealistic</rdf:li>
            <rdf:li>realistic</rdf:li>
            <rdf:li>red</rdf:li>
          </rdf:Bag>
        </dc:subject>
      </cc:Work>
      <cc:License
         rdf:about="http://creativecommons.org/publicdomain/zero/1.0/">
        <cc:permits
           rdf:resource="http://creativecommons.org/ns#Reproduction" />
        <cc:permits
           rdf:resource="http://creativecommons.org/ns#Distribution" />
        <cc:permits
           rdf:resource="http://creativecommons.org/ns#DerivativeWorks" />
      </cc:License>
    </rdf:RDF>
  </metadata>
</svg>
