<?xml version="1.0" encoding="UTF-8" standalone="no"?>
<svg
   xmlns:dc="http://purl.org/dc/elements/1.1/"
   xmlns:cc="http://creativecommons.org/ns#"
   xmlns:rdf="http://www.w3.org/1999/02/22-rdf-syntax-ns#"
   xmlns:svg="http://www.w3.org/2000/svg"
   xmlns="http://www.w3.org/2000/svg"
   xmlns:sodipodi="http://sodipodi.sourceforge.net/DTD/sodipodi-0.dtd"
   xmlns:inkscape="http://www.inkscape.org/namespaces/inkscape"
   inkscape:version="1.0 (6e3e5246a0, 2020-05-07)"
   height="1920"
   width="1815"
   sodipodi:docname="apple_abstract.svg"
   xml:space="preserve"
   enable-background="new -39 -41.2562 1893 2002.5125"
   viewBox="-39 -41.2562 1815 1920"
   y="0px"
   x="0px"
   id="Layer_1"
   version="1.1"><metadata
   id="metadata2557"><rdf:RDF><cc:Work
       rdf:about=""><dc:format>image/svg+xml</dc:format><dc:type
         rdf:resource="http://purl.org/dc/dcmitype/StillImage" /><dc:title></dc:title></cc:Work></rdf:RDF></metadata><defs
   id="defs2555" /><sodipodi:namedview
   inkscape:current-layer="Layer_1"
   fit-margin-bottom="0"
   fit-margin-right="0"
   fit-margin-left="0"
   fit-margin-top="0"
   showgrid="false"
   id="namedview2553"
   inkscape:window-height="480"
   inkscape:window-width="640"
   inkscape:pageshadow="2"
   inkscape:pageopacity="0"
   guidetolerance="10"
   gridtolerance="10"
   objecttolerance="10"
   borderopacity="1"
   bordercolor="#666666"
   pagecolor="#ffffff" />
<g
   transform="translate(-39,-41.2562)"
   id="g2550">
	<path
   id="path2116"
   d="m 231.85,0 h 40.69 c 10.51,1.14 21.11,1.57 31.67,1.88 1.52,0.11 3.04,0.22 4.56,0.32 3.79,0.33 7.59,0.56 11.4,0.68 0.42,0.04 1.25,0.12 1.66,0.16 3.07,0.48 6.21,0.86 9.34,0.88 0.42,0.04 1.26,0.12 1.68,0.16 2.75,0.32 5.57,0.63 8.37,0.76 3.27,0.26 6.47,0.98 9.69,1.56 2.56,1.52 4.95,1.59 7.18,0.22 89.84,12.59 178.47,37.12 260.06,77.22 58.29,29.05 113.63,65.96 157.49,114.51 38.9,42.74 67.4,96.37 73.73,154.35 -0.17,3.16 -0.72,6.48 0.43,9.52 0.11,0.39 0.31,1.17 0.41,1.56 -0.16,8.81 -0.43,17.64 0,26.45 -0.13,1.51 -0.26,3.02 -0.37,4.54 -0.47,3.12 -0.71,6.3 -0.7,9.46 -2.64,13.59 -3.16,28.23 -8.69,40.86 -21.17,-55.95 -56.7,-105.62 -97.99,-148.5 -84.47,-88.04 -193.19,-149.12 -306.2,-192.83 -3,-1.58 -6.15,-2.91 -9.44,-3.72 2.81,2.34 5.94,4.34 9.27,5.89 43.62,24.35 85.41,51.85 126.02,80.93 57.26,42.21 112.34,88.13 158.84,142.2 38.22,45.07 74.67,96.54 82.44,156.64 -0.44,7.82 -0.45,15.65 -0.21,23.48 -15.62,8.31 -33.45,11.99 -50.89,14.21 -11.17,-0.6 -22.35,-0.46 -33.52,-0.18 C 672.4,518.86 627.91,502.76 587,481 523.8,447.72 467.87,401.8 419.01,349.98 328.09,251.9 262.37,130.31 231.85,0 Z"
   fill="#adcb38" />
	<path
   id="path2118"
   d="m 272.54,0 h 19.9 c 3.89,0.79 7.83,1.28 11.77,1.88 C 293.65,1.57 283.05,1.14 272.54,0 Z"
   fill="#d5e68b" />
	<path
   id="path2120"
   d="m 308.77,2.2 c 3.81,-0.01 7.61,0.22 11.4,0.68 -3.81,-0.12 -7.61,-0.35 -11.4,-0.68 z"
   fill="#d8e698" />
	<path
   id="path2122"
   d="m 321.83,3.04 c 3.14,0.08 6.22,0.44 9.34,0.88 -3.13,-0.02 -6.27,-0.4 -9.34,-0.88 z"
   fill="#d5e29d" />
	<path
   id="path2124"
   d="m 332.85,4.08 c 2.8,0.17 5.55,0.45 8.37,0.76 -2.8,-0.13 -5.62,-0.44 -8.37,-0.76 z"
   fill="#d9e899" />
	<path
   id="path2126"
   d="m 350.91,6.4 c 2.2,-1.41 4.6,-1.34 7.18,0.22 -2.23,1.37 -4.62,1.3 -7.18,-0.22 z"
   fill="#dae89b" />
	<path
   id="path2128"
   d="m 426.82,100.04 c 3.29,0.81 6.44,2.14 9.44,3.72 -0.05,0.54 -0.13,1.63 -0.17,2.17 -3.33,-1.55 -6.46,-3.55 -9.27,-5.89 z"
   fill="#def08c" />
	<path
   id="path2130"
   d="m 1193,104.99 c 17.74,-2.23 39.59,-0.49 58.95,-0.93 l 0.07,0.95 c -19.68,-0.03 -39.35,0.03 -59.02,-0.02 z"
   fill="#c7d981" />
	<path
   id="path2132"
   d="m 1176.99,106 c 2.8201,-1.3 6.5701,-1.54 11.27,-0.74 -3.77,0.41 -7.53,0.65 -11.27,0.74 z"
   fill="#d0dd98" />
	<path
   id="path2134"
   d="m 1188.26,105.26 c 1.5599,-0.17 3.14,-0.28 4.74,-0.27 19.67,0.05 39.34,-0.01 59.02,0.02 1.23,0.02 2.47,0.11 3.72,0.25 3.72,0.42 7.47,0.67 11.26,0.75 1.24,0.03 2.48,0.11 3.75,0.24 2.89,0.35 6.02,0.72 9,1 2.63,0.3 5.51,0.69 8.26,0.78 52.65,4.92 104.5699,18.08 153.8199,37.24 -62.37,98.1 -159.0299,174.5 -268.09,215.32 -31.6,11.19 -64.23,20.24 -97.72,23.35 -2.88,0.12 -5.59,0.16 -8.34,0.69 -0.66,0.08 -1.9901,0.25 -2.66,0.33 -5.14,0.18 -10.3101,-0.48 -15.34,0.64 -3.8201,0.51 -7.63,0.54 -11.42,0.1 -5.41,-0.66 -10.85,-0.7 -16.25,-0.71 -1.4,-0.03 -2.76,-0.19 -4.1,-0.47 -1.43,-0.15 -4.29,-0.43 -5.72,-0.57 -28.8,-2.87 -58.08,-13.59 -78.96,-34.23 2.89,-20.2 17.67,-36.81 30.56,-51.94 39.68,-39.01 90.5001,-64.19 141.84,-84.25 55.05,-21.46 112.5599,-36.03 170.63,-46.62 2.78,-0.07 5.52,-0.69 8.17,-1.59 -7.9,-0.19 -15.9501,-1.15 -23.75,0.29 -1.88,0.41 -3.8,0.42 -5.6801,0.4 -4.48,0.08 -8.96,-0.3 -13.33,0.6 -0.66,0.09 -1.9801,0.25 -2.65,0.34 -3.54,0.05 -6.92,-0.08 -10.34,0.61 -7.2101,0.97 -14.4401,1.7 -21.66,2.37 -2.9,0.13 -5.63,-0.04 -8.34,0.74 -51.92,7.21 -103.5901,19.23 -151.8401,40.12 -44.99,19.4 -87.8199,46.16 -120.83,82.62 -2.78,-0.29 -1.76,-3.48 -2.12,-5.41 5.28,-55.23 40.89,-104.05 87.4,-132.72 45.82,-28.76 99.43,-42.27 152.7,-48.26 3.02,-0.08 6.28,0.06 9.33,-0.62 1.2001,-0.23 2.42,-0.36 3.67,-0.4 3.7403,-0.09 7.5003,-0.33 11.2703,-0.74 z"
   fill="#adcb38" />
	<path
   id="path2136"
   d="m 1255.74,105.26 c 4.65,-0.8 8.4,-0.55 11.26,0.75 -3.79,-0.08 -7.54,-0.33 -11.26,-0.75 z"
   fill="#d1dd9a" />
	<path
   id="path2138"
   d="m 1163.99,107.02 c 0.11,-3.33 6.88,-0.31 9.33,-0.62 -3.05,0.68 -6.31,0.54 -9.33,0.62 z"
   fill="#dceaa0" />
	<path
   id="path2140"
   d="m 1270.75,106.25 c 2.01,0.75 9.03,-1.85 9,1 -2.98,-0.28 -6.11,-0.65 -9,-1 z"
   fill="#d9e797" />
	<path
   id="path2142"
   d="m 1279.75,107.25 c 2.45,0.28 7.3101,-1.57 8.26,0.78 -2.75,-0.09 -5.63,-0.48 -8.26,-0.78 z"
   fill="#cad88e" />
	<path
   id="path2144"
   d="m 1260.6801,165.61 c 7.7999,-1.44 15.85,-0.48 23.75,-0.29 -2.65,0.9 -5.39,1.52 -8.17,1.59 -5.1902,-1.06 -10.4001,-0.59 -15.58,-1.3 z"
   fill="#dbeb8c" />
	<path
   id="path2146"
   d="m 1241.67,166.61 c 4.37,-0.9 8.85,-0.52 13.33,-0.6 -2.34,2.4 -9.16,0.82 -13.33,0.6 z"
   fill="#d5e2a0" />
	<path
   id="path2148"
   d="m 1228.6801,167.56 c 3.4199,-0.69 6.7999,-0.56 10.34,-0.61 -0.9301,3.02 -7.4502,0.47 -10.34,0.61 z"
   fill="#d5e599" />
	<path
   id="path2150"
   d="m 1198.6801,170.67 c 2.71,-0.78 5.4399,-0.61 8.34,-0.74 -0.9201,2.43 -5.8801,0.55 -8.34,0.74 z"
   fill="#d3e09a" />
	<path
   id="path2152"
   d="m 926.01,293.41 c -3.78,6.55 -4.38,-3.81 -2.12,-5.41 0.36,1.93 -0.66,5.12 2.12,5.41 z"
   fill="#c0cd85" />
	<path
   id="path2154"
   d="m 849.37,352.7 c 0.68,3.14 0.34,6.31 0.43,9.52 -1.15,-3.04 -0.6,-6.36 -0.43,-9.52 z"
   fill="#cfdc8e" />
	<path
   id="path2156"
   d="m 850.21,363.78 c 1.57,8.7 0.92,17.7 0,26.45 -0.43,-8.81 -0.16,-17.64 0,-26.45 z"
   fill="#e3edb4" />
	<path
   id="path2158"
   d="m 1012.19,383.95 c 1.43,0.14 4.29,0.42 5.72,0.57 -1.38,1.22 -5.42,1.69 -5.72,-0.57 z"
   fill="#d0dd99" />
	<path
   id="path2160"
   d="m 1067.6801,384.63 c 2.75,-0.53 5.46,-0.57 8.34,-0.69 -0.9301,2.41 -5.8801,0.56 -8.34,0.69 z"
   fill="#d2dd9b" />
	<path
   id="path2162"
   d="m 1022.01,384.99 c 5.4,0.01 10.84,0.05 16.25,0.71 -4.75,-0.66 -13.26,2.09 -16.25,-0.71 z"
   fill="#cad783" />
	<path
   id="path2164"
   d="m 1049.6801,385.6 c 5.0299,-1.12 10.2,-0.46 15.34,-0.64 -3.1301,2.37 -10.4301,0.99 -15.34,0.64 z"
   fill="#cbda88" />
	<path
   id="path2166"
   d="m 849.14,404.23 c -0.01,-3.16 0.23,-6.34 0.7,-9.46 0.11,3.18 -0.26,6.3 -0.7,9.46 z"
   fill="#dbe79e" />
	<path
   id="path2168"
   d="m 1318.71,411.71 c 16.3501,-1.68 33.0901,-0.82 49.51,0.05 -16.5,0.28 -33.02,0.52 -49.51,-0.05 z"
   fill="#da9a9b" />
	<path
   id="path2170"
   d="m 1300.72,412.68 c 3.05,-0.75 6.0601,-0.69 9.27,-0.69 l 0.02,1 c -3.21,-0.08 -6.18,-0.13 -9.29,-0.31 z"
   fill="#e49497" />
	<path
   id="path2172"
   d="m 1309.99,411.99 c 2.9301,-0.07 5.7,-0.2 8.72,-0.28 16.49,0.57 33.01,0.33 49.51,0.05 2.55,0.08 5.14,0.15 7.77,0.21 l 0.01,1.02 c -22,0.01 -44,0.04 -65.99,0 z"
   fill="#b23434" />
	<path
   id="path2174"
   d="m 1375.99,411.97 c 3.45,-0.02 6.77,0.32 10.24,0.77 -3.52,0.04 -6.79,0.27 -10.23,0.25 z"
   fill="#de898e" />
	<path
   id="path2176"
   d="m 1289.87,413.83 c 1.5699,-0.16 4.71,-0.48 6.27,-0.63 -1.56,0.15 -4.7001,0.47 -6.27,0.63 z"
   fill="#d59697" />
	<path
   id="path2178"
   d="m 1296.14,413.2 c 1.51,-0.17 3.04,-0.33 4.58,-0.52 3.11,0.18 6.0801,0.23 9.29,0.31 21.99,0.04 43.99,0.01 65.99,0 3.4399,0.02 6.71,-0.21 10.23,-0.25 12.55,1.44 25.12,2.76 37.65,4.47 1.0599,1.27 2.8199,1.16 4.25,0.56 92.0699,14.43 180.4399,57.28 244.71,125.42 75.76,77.98 117.42,183.43 133.38,289.69 -0.64,1.39 -0.72,3.15 0.5601,4.25 1.13,5.54 1.8199,11.15 2.47,16.77 -0.66,1.7 -0.83,3.7599 0.54,5.2 0.5399,4.58 1.0699,9.17 1.37,13.8 -1.39,2.87 -1.16,5.28 0.6899,7.22 0.14,1.18 0.3101,2.38 0.49,3.59 -0.15,2.78 -0.38,5.77 0.39,8.56 0.14,0.61 0.42,1.84 0.55,2.46 -0.2101,3.11 -0.3401,6.44 0.38,9.56 0.08,1.67 0.25,5.01 0.34,6.68 0.26,5.14 -1.04,10.67 1,15.6201 v 59.95 c -0.8199,4.41 -1.0601,8.95 -1.02,13.47 -0.15,3.26 0.06,6.69 0.02,10.01 -0.03,0.69 -0.11,2.07 -0.15,2.76 -0.52,3.06 -0.7,6.29 -0.74,9.43 -0.06,0.64 -0.1799,1.93 -0.24,2.58 -0.71,3.3999 -0.87,6.96 -0.6899,10.4399 -0.13,1.51 -0.2401,3.03 -0.3301,4.5601 -0.45,2.7 -0.5399,5.62 -0.7,8.4099 -0.14,1.5601 -0.25,3.13 -0.36,4.7101 -1.37,1.4099 -1.2001,3.46 -0.55,5.1899 -0.11,0.6901 -0.3199,2.05 -0.4299,2.74 -0.16,1.5701 -0.4801,4.7201 -0.64,6.29 -0.15,1.58 -0.27,3.17 -0.38,4.78 -1.37,1.4099 -1.2001,3.45 -0.55,5.1699 -0.6,3.55 -1.05,7.2001 -1.45,10.8 -1.29,1.0599 -1.2101,2.8 -0.5901,4.23 -0.5599,3.2001 -0.8999,6.55 -1.4399,9.79 -1.3201,1.45 -1.16,3.48 -0.52,5.22 -0.12,0.6901 -0.36,2.0699 -0.48,2.76 -1.34,1.45 -1.16,3.49 -0.49,5.23 -0.5801,2.9 -1.1801,5.8101 -1.52,8.77 -1.21,1.12 -1.1801,2.8199 -0.59,4.27 -0.1,0.4299 -0.3,1.2899 -0.39,1.72 -1.3301,1.45 -1.17,3.49 -0.52,5.23 -0.5601,2.24 -1.11,4.48 -1.53,6.76 -1.2,1.13 -1.14,2.84 -0.5,4.27 -2.86,17.7 -6.78,35.2 -10.4299,52.75 -1.24,1.0699 -1.23,2.78 -0.64,4.22 -17.1801,79.87 -38.74,159.04 -69,235.02 -29.2101,73.4 -66.41,144.2 -116.16,205.87 -51.55,64.3101 -118.27,117.13 -194.99,148 -33.13,13.4 -67.71,22.9401 -102.87,29.26 -1.42,-0.66 -3.2,-0.77 -4.25,0.55 -11.28,1.2799 -22.49,3.08 -33.76,4.36 -2.96,-1.39 -5.38,-1.16 -7.24,0.6899 -1.21,0.14 -2.41,0.3 -3.59,0.49 -2.98,-0.12 -5.73,-0.08 -8.5801,0.29 -3.5499,0.1 -6.9399,0.37 -10.4299,0.7 -18.76,-0.63 -37.53,-0.26 -56.29,-0.3199 -4.4399,-0.06 -8.8199,0.11 -13.21,0.24 -6.63,-0.22 -13.24,-0.05 -19.72,-1.59 -2.5601,-1.6 -4.9401,-1.7201 -7.14,-0.37 -1.9401,-0.2001 -3.87,-0.3501 -5.79,-0.4701 -1.5699,-0.1599 -4.72,-0.47 -6.29,-0.63 -0.6799,-0.11 -2.0499,-0.3199 -2.74,-0.4299 -1.45,-1.34 -3.5,-1.17 -5.1899,-0.49 -4,-0.4301 -7.87,-0.9401 -11.8101,-1.53 -1.48,-1.3 -3.51,-1.14 -5.21,-0.51 -0.6901,-0.1 -2.0701,-0.29 -2.76,-0.39 -1.05,-1.37 -2.86,-1.24 -4.25,-0.61 -3.27,-0.4199 -6.5,-1.0599 -9.76,-1.46 -1.11,-1.28 -2.87,-1.1901 -4.25,-0.53 -2.6,-0.47 -5.16,-1.04 -7.74,-1.48 -1.13,-1.23 -2.85,-1.1901 -4.25,-0.59 -18.7,-3.1901 -37.29,-7.05 -55.75,-11.39 -1.12,-1.27 -2.86,-1.2001 -4.26,-0.5801 -2.25,-0.5399 -4.5,-1.08 -6.76,-1.51 -1.5,-1.1299 -3.4,-1.12 -5.11,-0.6899 -1.23,-1.66 -3.41,-1.42 -5.08,-0.73 -4.01,-0.41 -7.91,-0.91 -11.84,-1.64 -2.58,-1.59 -4.96,-1.6901 -7.15,-0.3101 -1.67,-0.1499 -5.02,-0.4399 -6.69,-0.59 -7.48,-0.89 -15.09,-1.2999 -22.54,-0.12 -1.66,0.16 -4.97,0.46 -6.62,0.62 -1.72,-0.64 -3.72,-0.78 -5.18,0.49 -21.95,2.1901 -41.59,13.05 -62.67,18.64 -32.63,11.48 -66.32,19.6 -100.11,26.86 -1.43,-0.64 -3.21,-0.73 -4.26,0.61 l -0.72,0.3501 c -1.45,-0.62 -3.2,-0.64 -4.28,0.6499 l -0.72,0.3401 c -1.45,-0.6001 -3.2,-0.63 -4.28,0.6699 -0.43,0.07 -1.29,0.23 -1.72,0.3101 -1.44,-0.5801 -3.17,-0.61 -4.26,0.64 -4.96,0.6599 -9.89,1.4299 -14.78,2.49 -1.73,-0.6801 -3.8199,-0.88 -5.25,0.53 l -0.7,0.3799 c -1.75,-0.59 -3.77,-0.72 -5.2401,0.5701 -1.28,0.13 -2.55,0.29 -3.81,0.47 -1.72,-0.64 -3.77,-0.8099 -5.18,0.5701 -4.94,0.5599 -9.87,1.0599 -14.81,1.38 -1.43,-0.6101 -3.18,-0.67 -4.22,0.6399 -1.88,0.13 -3.75,0.28 -5.61,0.51 -3.5601,-0.2699 -7.1201,-0.7 -10.55,0.39 -0.62,0.15 -1.85,0.4401 -2.46,0.5901 -3.16,-0.26 -6.19,-0.26 -9.29,-0.3 -12,-0.06 -23.99,-0.04 -35.98,-0.01 -5.1,-0.08 -10.16,0 -15.23,0.24 -2.95,-0.33 -5.79,-0.27 -8.69,-0.5 -2.51,-1.7 -4.89,-1.83 -7.14,-0.38 -4.95,-0.5499 -9.88,-1.11 -14.83,-1.54 -1.06,-1.33 -2.83,-1.24 -4.22,-0.62 -7.64,-0.8099 -15.24,-1.97 -22.77,-3.4299 -1.12,-1.23 -2.84,-1.21 -4.26,-0.61 l -0.72,-0.3201 c -1.07,-1.35 -2.85,-1.26 -4.26,-0.63 C 443.57,1830.78 347.83,1770.65 275.97,1691.02 193.83,1600.53 136.34,1490.72 90.92,1378.04 60.72,1302.8199 35.35,1225.55 18.78,1146.12 c 0.6,-1.42 0.74,-3.23 -0.65,-4.21 -2.72,-13.2101 -5.28,-26.4701 -7.37,-39.78 0.63,-1.4301 0.71,-3.16 -0.52,-4.26 -0.46,-2.61 -1.04,-5.1801 -1.53,-7.76 0.66,-1.73 0.86,-3.78 -0.47,-5.23 -0.12,-0.6901 -0.36,-2.0699 -0.48,-2.77 0.61,-1.75 0.77,-3.78 -0.52,-5.25 -0.12,-0.4299 -0.36,-1.2999 -0.47,-1.74 0.41,-1.35 0.47,-2.7 0.18,-4.04 -0.22,-16.76 -3.66,-33.33 -3.88,-50.11 -0.35,-1.23 0.43,-3.3799 -1.13,-3.87 l -0.85,-0.44 c -0.02,-0.66 -0.08,-1.99 -0.11,-2.65 0.01,-3.09 0.04,-6 0.03,-9.02 -0.3,-5.2 1.02,-10.64 -1.01,-15.57 v -32.96 c 1.11,-5.78 1.02,-11.66 1.01,-17.48 0.04,-1.69 0.11,-5.07 0.15,-6.76 0.27,-2.9 0.55,-5.61 0.75,-8.4399 0.09,-0.6801 0.28,-2.04 0.37,-2.71 1.61,-2.55 1.74,-4.93 0.4,-7.15 0.2,-1.62 0.37,-3.23 0.56,-4.83 1.31,-1.45 1.14,-3.48 0.52,-5.17 0.52,-3.65 1.07,-7.19 1.5,-10.82 1.3,-1.47 1.12,-3.52 0.45,-5.21 5.93,-38.55 15.14,-76.79 30.44,-112.75 25.35,-62.38 68.62,-117.71 124.44,-155.57 47.02,-32.47 102.03,-52.22 158.32,-60.84 1.32,0.43 2.66,0.52 4.02,0.26 34.26,-3.64 68.63,-4.96 103.12,-3.98 1.76,-0.05 5.28,-0.15 7.05,-0.19 0.66,0.07 2,0.21 2.66,0.28 2.77,0.28 5.63,0.63 8.45,0.76 15.95,1.64 31.83,3.88 47.67,6.35 1.07,1.25 2.82,1.17 4.24,0.6 41.05,7.7 81.38,19.03 120.49,33.66 C 743.16,643.77 856.95,721.84 953.32,815.9 c -0.42,4.29 -4.91,-1.84 -7.58,-1.75 C 830.38,729.7 695.63,672.74 556.13,642.79 c -1.1,-1.27 -2.85,-1.19 -4.26,-0.58 -11.49,-2.62 -23.11,-4.6 -34.75,-6.42 -1.09,-1.2599 -2.82,-1.19 -4.23,-0.6 -8.9,-1.3 -17.81,-2.58 -26.77,-3.34 -1.54,-0.25 -4.62,-0.74 -6.15,-0.98 -2.31,-1.65 -4.63,-1.89 -6.95,-0.74 l -0.81,-0.12 c -7.67,-1.34 -15.44,-1.99 -23.22,-2.01 -1.93,-0.07 -3.84,-0.14 -5.76,-0.25 -17.12,-1.25 -34.39,-1.14 -51.52,-0.15 -2.71,0.25 -5.34,0.62 -7.99,1.07 -1.54,0.17 -3.07,0.32 -4.6,0.49 -2.92,-1.33 -5.33,-1.1 -7.24,0.6801 -4.61,0.35 -9.22,0.8 -13.8,1.37 -1.72,-0.6 -3.72,-0.75 -5.17,0.53 -69.66,8.76 -139.58,36.76 -186.92,90.24 -41.59,46.03 -63.74,106.35 -73.21,166.89 -1.26,1.09 -1.17,2.83 -0.55,4.25 -1.01,6.2 -1.83,12.4 -2.28,18.68 l -0.67,0.28 c -3.21,13.18 -2.63,28.55 -3.44,42.62 -0.68,14.23 -2.33,29.43 0.1,43.33 0.21,0.33 0.63,0.99 0.84,1.3199 0.22,2.81 0.32,5.52 0.47,8.42 -0.02,3.8 0.16,7.62 0.52,11.46 0.14,1.82 0.35,3.65 0.56,5.49 0.04,2.76 -0.13,5.73 0.35,8.5601 0.19,1.85 0.34,3.72 0.47,5.61 -1.29,2.84 -1.06,5.25 0.68,7.23 0.38,4.23 0.9,8.49 1.36,12.74 0.16,1.5701 0.48,4.7001 0.64,6.27 0.13,1.58 0.24,3.17 0.38,4.78 -0.59,1.7 -0.73,3.7 0.51,5.1899 1.64,10.24 3.17,20.49 4.46,30.78 -0.58,1.4 -0.63,3.12 0.58,4.24 7.9,49.62 18.69,98.77 31.79,147.27 26.54,75.33 57.26,149.37 95.54,219.5599 56.67,103.24 132.84,201.3301 238.96,256.9601 47.61,25.1699 100.32,40.38 153.89,45.45 2.5,1.4501 4.88,1.5701 7.14,0.37 2.54,0.13 5.1,0.3 7.69,0.5 5.03,0.53 10.15,0.76 15.23,0.79 10.57,1.35 21.53,1.74 32.1,0.23 3.69,-0.35 7.4,-0.7 11.12,-1.0601 2.54,-0.1699 5.1,-0.2699 7.69,-0.3099 2.86,1.1899 5.26,0.9399 7.21,-0.73 7.27,-0.64 14.53,-1.49 21.78,-2.39 1.7,0.59 3.71,0.75 5.21,-0.46 2.93,-0.42 5.84,-1.01 8.76,-1.52 1.39,0.58 3.13,0.6599 4.26,-0.53 43.18,-7.09 85.66,-18.38 126.81,-33.27 17.29,-5.6899 33.85,-13.77 51.83,-17.22 19.43,-2.28 38.99,-2.13 58.43,0.05 44.05,9.24 87.7,21.21 132.67,25.37 1.5601,0.1599 4.7,0.48 6.27,0.6399 4.25,0.5701 8.5,1.0801 12.7999,1.5601 2.5,1.46 4.88,1.5599 7.14,0.3099 1.8401,0.17 3.7001,0.3301 5.5601,0.5601 0.35,0.1899 1.03,0.58 1.37,0.77 26.17,2.5499 53.01,3.1699 79.27,0.33 1.33,-0.34 2.65,-0.74 3.99,-1.11 1.86,-0.17 3.73,-0.28 5.62,-0.37 2.7999,1.17 5.21,0.9401 7.24,-0.67 3.25,-0.3899 6.46,-1.0199 9.72,-1.4399 1.5801,-0.13 4.73,-0.39 6.3101,-0.52 27.5399,-4.42 55.11,-9.45 81.5499,-18.58 79.16,-25.4601 149.65,-75.64 201.6801,-140.28 27.78,-32.45 49.5599,-69.39 70.54,-106.4301 4.62,-5.9099 8.23,-12.8199 9.96,-20.1399 46.3099,-97.8 74.74,-203.1901 92.36,-309.7001 1.3,-1.48 1.1,-3.53 0.46,-5.21 1.5701,-8.88 2.5901,-17.84 3.4501,-26.8101 1.2799,-1.0499 1.21,-2.8099 0.6899,-4.2 0.08,-0.6901 0.24,-2.05 0.3201,-2.74 0.1699,-1.5701 0.5,-4.7101 0.6699,-6.28 0.09,-1.6 0.1901,-3.17 0.3201,-4.74 0.1699,-1.5699 0.5,-4.7 0.6599,-6.27 0.6001,-4.88 1.2001,-9.74 1.37,-14.64 0.1001,-2.9 0.5801,-5.59 0.65,-8.4299 0.1,-1.87 0.1801,-3.73 0.3201,-5.5801 0.11,-2.8999 0.59,-5.59 0.7,-8.4199 0.08,-1.2001 0.1801,-2.39 0.3,-3.5601 0.49,-3.51 0.88,-6.9399 0.6799,-10.45 0.1801,-3.47 0.15,-7.04 0.4401,-10.47 0.21,-0.54 0.65,-1.6201 0.87,-2.17 1.61,-9.63 0.6799,-19.44 0.84,-29.14 0.02,-10.91 -0.21,-21.82 0.35,-32.7 -0.72,-10.09 0.87,-20.64 -1.13,-30.49 -0.24,-0.53 -0.73,-1.58 -0.97,-2.11 -0.22,-2.79 -0.5599,-5.69 -0.6,-8.4 -0.05,-3.29 0.49,-6.44 -0.29,-9.6 -0.2,-1.2 -0.37,-2.4 -0.51,-3.58 1.27,-2.98 1.03,-5.39 -0.73,-7.22 -0.1,-1.94 -0.1799,-3.86 -0.25,-5.77 -0.17,-1.57 -0.51,-4.71 -0.6799,-6.28 -0.09,-0.67 -0.27,-2.03 -0.3601,-2.7 -0.1599,-1.57 -0.48,-4.72 -0.6399,-6.29 -0.15,-1.27 -0.29,-2.52 -0.4,-3.76 0.5699,-1.73 0.73,-3.73 -0.49,-5.2 -7.5901,-56.13 -20.23,-111.98 -43.16,-163.96 -26.17,-60.6 -66.26,-115.9 -118.9401,-156.12 -51.83,-40.53 -114.6499,-65.28 -179.0599,-77.03 -1.11,-1.27 -2.87,-1.19 -4.26,-0.57 -4.9,-0.96 -9.84,-1.73 -14.77,-2.48 -1.48,-1.28 -3.5,-1.13 -5.2,-0.51 -1.28,-0.16 -2.55,-0.31 -3.8,-0.46 -1.46,-1.32 -3.49,-1.16 -5.1799,-0.56 -4.2201,-0.64 -8.4601,-1.11 -12.7001,-1.37 -2.9099,-0.33 -5.5499,-0.57 -8.37,-0.77 -0.4199,-0.04 -1.26,-0.13 -1.6799,-0.17 -3.49,-0.67 -6.89,-0.93 -10.39,-0.73 -2.8401,-0.16 -5.8201,-0.34 -8.54,-0.45 -15.8,-1.07 -31.76,-1.28 -47.53,-0.09 -2.51,0.26 -4.98,0.51 -7.4199,0.75 -2.9701,-0.02 -5.74,-0.21 -8.5701,0.27 -1.83,0.23 -3.64,0.47 -5.4399,0.69 -2.9401,-0.05 -5.74,-0.57 -8.41,0.55 l -0.74,0.22 c -2.9301,0.11 -5.63,0.09 -8.41,0.56 -1.21,0.16 -2.4,0.33 -3.5699,0.52 -1.5801,0.15 -4.72,0.45 -6.29,0.6 -9.3099,0.67 -18.49,2.44 -27.76,3.43 -1.74,-0.6 -3.73,-0.74 -5.21,0.48 -106.84,17 -209.89,53.29 -306.85,100.76 -0.85,-0.69 -1.64,-1.43 -2.34,-2.2401 110.14,-77.02 234.1,-137.56 367.18,-161.41 1.39,0.58 3.13,0.64 4.25,-0.59 9.85,-1.83 19.73,-3.58 29.73,-4.42 1.5701,-0.15 4.71,-0.46 6.28,-0.62 1.24,-0.14 2.49,-0.27 3.77,-0.4 1.6899,0.59 3.74,0.77 5.1799,-0.57 1.5701,-0.14 3.17,-0.26 4.78,-0.38 1.5694,-0.1598 4.7095,-0.4798 6.2695,-0.6298 z"
   fill="#d83333" />
	<path
   id="path2180"
   d="m 1279.91,414.78 c 1.4199,-1.32 3.4399,-1.17 5.1799,-0.57 -1.4399,1.34 -3.4899,1.16 -5.1799,0.57 z"
   fill="#e4898a" />
	<path
   id="path2182"
   d="m 1269.86,415.8 c 1.5701,-0.15 4.71,-0.46 6.28,-0.62 -1.5701,0.16 -4.7099,0.47 -6.28,0.62 z"
   fill="#da9495" />
	<path
   id="path2184"
   d="m 1423.88,417.21 c 1.39,-0.61 3.13,-0.68 4.25,0.56 -1.43,0.6 -3.1901,0.71 -4.25,-0.56 z"
   fill="#db9797" />
	<path
   id="path2186"
   d="m 1235.88,420.81 c 1.05,-1.29 2.8199,-1.2 4.25,-0.59 -1.12,1.23 -2.86,1.17 -4.25,0.59 z"
   fill="#eba2a3" />
	<path
   id="path2188"
   d="m 1259.71,475.63 c 15.77,-1.19 31.73,-0.98 47.53,0.09 -15.85,0.39 -31.7,0.53 -47.53,-0.09 z"
   fill="#c96665" />
	<path
   id="path2190"
   d="m 1243.72,476.65 c 2.8301,-0.48 5.6,-0.29 8.5701,-0.27 -2.8401,0.38 -5.8301,0.18 -8.5701,0.27 z"
   fill="#d08383" />
	<path
   id="path2192"
   d="m 1315.78,476.17 c 3.5,-0.2 6.9,0.06 10.39,0.73 -3.46,0.09 -7.02,-0.24 -10.39,-0.73 z"
   fill="#c8787a" />
	<path
   id="path2194"
   d="m 1229.87,477.89 c 2.67,-1.12 5.47,-0.6 8.41,-0.55 -2.78,0.42 -5.73,0.34 -8.41,0.55 z"
   fill="#dc8488" />
	<path
   id="path2196"
   d="m 1327.85,477.07 c 2.8201,0.2 5.4601,0.44 8.37,0.77 -2.7801,-0.11 -5.71,-0.48 -8.37,-0.77 z"
   fill="#df928b" />
	<path
   id="path2198"
   d="m 1220.72,478.67 c 2.78,-0.47 5.48,-0.45 8.41,-0.56 -2.67,1.12 -5.6999,0.51 -8.41,0.56 z"
   fill="#f2bbb8" />
	<path
   id="path2200"
   d="m 1210.86,479.79 c 1.5701,-0.15 4.71,-0.45 6.29,-0.6 -1.5801,0.15 -4.7199,0.45 -6.29,0.6 z"
   fill="#f9b9b6" />
	<path
   id="path2202"
   d="m 1348.92,479.21 c 1.6899,-0.6 3.72,-0.76 5.1799,0.56 -1.7299,0.6 -3.7699,0.78 -5.1799,-0.56 z"
   fill="#f1a5a9" />
	<path
   id="path2204"
   d="m 1357.9,480.23 c 1.7,-0.62 3.72,-0.77 5.2,0.51 -1.73,0.63 -3.77,0.81 -5.2,-0.51 z"
   fill="#cf8b89" />
	<path
   id="path2206"
   d="m 1177.89,483.7 c 1.48,-1.22 3.47,-1.08 5.21,-0.48 -1.45,1.36 -3.52,1.15 -5.21,0.48 z"
   fill="#e49292" />
	<path
   id="path2208"
   d="m 1377.87,483.22 c 1.39,-0.62 3.15,-0.7 4.26,0.57 -1.4401,0.59 -3.18,0.68 -4.26,-0.57 z"
   fill="#e38f8e" />
	<path
   id="path2210"
   d="m 803.39,485.7 c 1.06,7.7 1.26,16.02 -0.21,23.48 -0.24,-7.83 -0.23,-15.66 0.21,-23.48 z"
   fill="#c7d883" />
	<path
   id="path2212"
   d="m 718.77,523.21 c 11.17,-0.28 22.35,-0.42 33.52,0.18 -11.09,1.34 -22.43,0.86 -33.52,-0.18 z"
   fill="#cedf8a" />
	<path
   id="path2214"
   d="m 369.77,553.75 c 15.09,-1.21 30.36,-1.25 45.46,0.02 -15.16,0.24 -30.32,0.51 -45.46,-0.02 z"
   fill="#da9a99" />
	<path
   id="path2216"
   d="m 350.14,555.18 c 6.52,-0.74 13.06,-1.23 19.63,-1.43 15.14,0.53 30.3,0.26 45.46,0.02 3.6,0.26 7.18,0.28 10.81,0.42 l 0.01,0.82 c -34.49,-0.98 -68.86,0.34 -103.12,3.98 l 0.08,-0.76 c 6.93,-0.97 13.83,-2.35 20.86,-2.43 1.57,-0.16 4.7,-0.47 6.27,-0.62 z"
   fill="#b43d3e" />
	<path
   id="path2218"
   d="m 426.04,554.19 c 2.25,-1.18 4.6,-0.97 7.06,0.63 -1.77,0.04 -5.29,0.14 -7.05,0.19 z"
   fill="#f3a8a5" />
	<path
   id="path2220"
   d="m 343.87,555.8 c 1.57,-0.16 4.7,-0.47 6.27,-0.62 -1.57,0.15 -4.7,0.46 -6.27,0.62 z"
   fill="#d18789" />
	<path
   id="path2222"
   d="m 435.76,555.1 c 2.83,0.1801 5.6,0.4 8.45,0.76 -2.82,-0.13 -5.68,-0.48 -8.45,-0.76 z"
   fill="#d48d8e" />
	<path
   id="path2224"
   d="m 318.91,558.73 c 1.13,-1 2.75,-1.22 4.1,-0.5 l -0.08,0.76 c -1.36,0.26 -2.7,0.17 -4.02,-0.26 z"
   fill="#e89496" />
	<path
   id="path2226"
   d="m 491.88,562.21 c 1.4,-0.61 3.16,-0.69 4.24,0.6 -1.42,0.57 -3.17,0.65 -4.24,-0.6 z"
   fill="#eea39f" />
	<path
   id="path2228"
   d="m 856.83,591.06 c 3.47,-3.55 7.87,-5.96 11.87,-8.84 0.7,0.8101 1.49,1.55 2.34,2.2401 -4.67,2.3299 -9.21,5.0499 -14.21,6.5999 z"
   fill="#a55b5f" />
	<path
   id="path2230"
   d="m 391.71,627.6 c 17.13,-0.99 34.4,-1.1 51.52,0.15 -1.86,0.12 -5.59,0.36 -7.46,0.48 -12.49,-0.36 -25,-0.48 -37.48,0.13 -2.2,-0.25 -4.39,-0.53 -6.58,-0.76 z"
   fill="#b84c49" />
	<path
   id="path2232"
   d="m 383.72,628.67 c 2.65,-0.45 5.28,-0.82 7.99,-1.07 2.19,0.23 4.38,0.51 6.58,0.76 -4.77,1.17 -9.75,0.26 -14.57,0.31 z"
   fill="#e6a4a7" />
	<path
   id="path2234"
   d="m 435.77,628.23 c 1.87,-0.12 5.6,-0.36 7.46,-0.48 1.92,0.11 3.83,0.18 5.76,0.25 l 0.02,1.01 c -4.43,0 -8.86,-0.34 -13.24,-0.78 z"
   fill="#e4a6a5" />
	<path
   id="path2236"
   d="m 448.99,628 c 7.78,0.02 15.55,0.67 23.22,2.01 -7.75,-0.09 -15.44,-1.15 -23.2,-1 z"
   fill="#b95959" />
	<path
   id="path2238"
   d="m 371.88,629.84 c 1.91,-1.78 4.32,-2.01 7.24,-0.6801 -1.94,1.7301 -4.35,1.9601 -7.24,0.6801 z"
   fill="#f2a7a8" />
	<path
   id="path2240"
   d="m 473.02,630.13 c 2.32,-1.15 4.64,-0.91 6.95,0.74 -2.28,1.2 -4.59,0.96 -6.95,-0.74 z"
   fill="#b56060" />
	<path
   id="path2242"
   d="m 352.91,631.74 c 1.45,-1.28 3.45,-1.13 5.17,-0.53 -1.42,1.36 -3.47,1.17 -5.17,0.53 z"
   fill="#ea9899" />
	<path
   id="path2244"
   d="m 479.97,630.87 c 1.53,0.24 4.61,0.73 6.15,0.98 -1.54,-0.25 -4.62,-0.74 -6.15,-0.98 z"
   fill="#ef9b98" />
	<path
   id="path2246"
   d="m 512.89,635.19 c 1.41,-0.59 3.14,-0.66 4.23,0.6 -1.41,0.59 -3.17,0.68 -4.23,-0.6 z"
   fill="#e49192" />
	<path
   id="path2248"
   d="m 551.87,642.21 c 1.41,-0.61 3.16,-0.69 4.26,0.58 -1.43,0.59 -3.18,0.67 -4.26,-0.58 z"
   fill="#e9a7a7" />
	<path
   id="path2250"
   d="m 945.74,814.15 c 2.67,-0.09 7.16,6.04 7.58,1.75 6.95,7.04 14.37,13.66 20.74,21.2599 C 964.07,830.41 955.07,821.88 945.74,814.15 Z"
   fill="#a74a4a" />
	<path
   id="path2252"
   d="m 1806.22,832.88 c 1.24,1.08 1.13,2.83 0.5601,4.25 -1.2801,-1.1 -1.2001,-2.86 -0.5601,-4.25 z"
   fill="#d89494" />
	<path
   id="path2254"
   d="m 1809.25,853.9 c 1.26,1.45 1.1,3.47 0.54,5.2 -1.37,-1.44 -1.2,-3.5 -0.54,-5.2 z"
   fill="#e89c9c" />
	<path
   id="path2256"
   d="m 1811.16,872.9 c 1.6799,1.88 1.9099,4.29 0.6899,7.22 -1.8499,-1.94 -2.0799,-4.35 -0.6899,-7.22 z"
   fill="#dc898d" />
	<path
   id="path2258"
   d="m 1723.29,880.9 c 1.22,1.47 1.0599,3.47 0.49,5.2 -1.38,-1.45 -1.18,-3.51 -0.49,-5.2 z"
   fill="#d99191" />
	<path
   id="path2260"
   d="m 1812.34,883.71 c 0.48,2.83 0.13,5.62 0.39,8.56 -0.77,-2.79 -0.5401,-5.78 -0.39,-8.56 z"
   fill="#d2898b" />
	<path
   id="path2262"
   d="m 5.26,893.1 c -0.64,-1.72 -0.8,-3.73 0.45,-5.21 0.67,1.69 0.85,3.74 -0.45,5.21 z"
   fill="#d8938e" />
	<path
   id="path2264"
   d="m 92.23,893.12 c -0.62,-1.42 -0.71,-3.16 0.55,-4.25 0.61,1.39 0.7,3.14 -0.55,4.25 z"
   fill="#d79796" />
	<path
   id="path2266"
   d="m 1724.1801,889.86 c 0.1599,1.57 0.48,4.72 0.6399,6.29 -0.16,-1.57 -0.48,-4.72 -0.6399,-6.29 z"
   fill="#ea9896" />
	<path
   id="path2268"
   d="m 1813.28,894.73 c 1.01,3.11 0.2999,6.29 0.38,9.56 -0.7201,-3.12 -0.5901,-6.45 -0.38,-9.56 z"
   fill="#efa2a3" />
	<path
   id="path2270"
   d="m 1725.1801,898.85 c 0.1699,1.57 0.5099,4.71 0.6799,6.28 -0.1701,-1.57 -0.51,-4.71 -0.6799,-6.28 z"
   fill="#dc9291" />
	<path
   id="path2272"
   d="m 3.24,909.09 c -0.62,-1.72 -0.79,-3.7401 0.52,-5.17 0.62,1.69 0.79,3.72 -0.52,5.17 z"
   fill="#e09f9f" />
	<path
   id="path2274"
   d="m 1726.11,910.9 c 1.76,1.83 2,4.24 0.73,7.22 -1.8,-1.98 -2.04,-4.38 -0.73,-7.22 z"
   fill="#eda3a4" />
	<path
   id="path2276"
   d="m 1814,910.97 1,0.08 v 15.54 c -2.04,-4.95 -0.74,-10.48 -1,-15.62 z"
   fill="#f18e92" />
	<path
   id="path2278"
   d="m 85.84,954.7 c 0.81,-14.07 0.23,-29.44 3.44,-42.62 -1.26,1.82 -0.69,4.1 0.16,5.97 -0.27,1.61 -0.54,3.24 -0.81,4.88 -1.51,2.5 -1.62,4.88 -0.34,7.15 -0.18,1.89 -0.33,3.79 -0.46,5.7 -0.41,3.0699 -0.74,6.29 -0.69,9.4399 -0.14,3.29 -0.2,6.48 -0.26,9.84 z"
   fill="#b03e3e" />
	<path
   id="path2280"
   d="m 89.28,912.08 0.67,-0.28 c -0.13,1.56 -0.39,4.68 -0.51,6.25 -0.85,-1.87 -1.42,-4.15 -0.16,-5.97 z"
   fill="#e5999c" />
	<path
   id="path2282"
   d="m 2.28,921.07 c -1.28,-2.3 -1.14,-4.68 0.4,-7.15 1.34,2.22 1.21,4.6 -0.4,7.15 z"
   fill="#db8888" />
	<path
   id="path2284"
   d="m 1727.35,921.7 c 0.78,3.16 0.24,6.31 0.29,9.6 -0.7001,-3.15 -0.53,-6.47 -0.29,-9.6 z"
   fill="#d08e8a" />
	<path
   id="path2286"
   d="m 88.29,930.08 c -1.28,-2.27 -1.17,-4.65 0.34,-7.15 1.39,2.23 1.28,4.61 -0.34,7.15 z"
   fill="#e4aaa5" />
	<path
   id="path2288"
   d="M 1.16,932.22 C 1.19,929.4001 1.54,926.5 1.91,923.7801 1.71,926.61 1.43,929.32 1.16,932.22 Z"
   fill="#e7a8a7" />
	<path
   id="path2290"
   d="m 87.14,945.22 c -0.05,-3.15 0.28,-6.37 0.69,-9.4399 0.07,3.1799 -0.28,6.2399 -0.69,9.4399 z"
   fill="#e49793" />
	<path
   id="path2292"
   d="m 0,939.05 1.01,-0.07 c 0.01,5.82 0.1,11.7 -1.01,17.48 z"
   fill="#f48686" />
	<path
   id="path2294"
   d="m 1728.24,939.7 c 0.24,0.53 0.73,1.58 0.97,2.11 -0.1699,4.46 -0.34,8.97 -0.52,13.47 -1.3701,-5.08 -0.46,-10.44 -0.45,-15.58 z"
   fill="#eb9e9f" />
	<path
   id="path2296"
   d="m 1729.21,941.81 c 2,9.85 0.41,20.4 1.13,30.49 -0.2999,-0.37 -0.9,-1.11 -1.1899,-1.48 -0.23,-5.18 -0.29,-10.4 -0.4601,-15.54 0.18,-4.5 0.35,-9.01 0.52,-13.47 z"
   fill="#ad4445" />
	<path
   id="path2298"
   d="m 85.94,998.03 c -2.43,-13.9 -0.78,-29.1 -0.1,-43.33 0.29,14.44 0.13,28.88 0.1,43.33 z"
   fill="#af2d2b" />
	<path
   id="path2300"
   d="m 85.84,954.7 1.04,0.36 c 0.23,14.75 0.22,29.52 -0.1,44.29 -0.21,-0.33 -0.63,-0.99 -0.84,-1.3199 C 85.97,983.58 86.13,969.14 85.84,954.7 Z"
   fill="#d18688" />
	<path
   id="path2302"
   d="m 1729.15,970.82 c 0.2899,0.37 0.89,1.11 1.1899,1.48 -0.5599,10.88 -0.33,21.79 -0.35,32.7 h -0.97 c -0.09,-11.4 -0.07,-22.8 0.1301,-34.18 z"
   fill="#ca8081" />
	<path
   id="path2304"
   d="m 1813.98,1000.01 c -0.04,-4.52 0.2001,-9.06 1.02,-13.47 v 13.44 z"
   fill="#ee787b" />
	<path
   id="path2306"
   d="m 0,989.42 c 2.03,4.93 0.71,10.37 1.01,15.57 L 0,1005.01 Z"
   fill="#f27175" />
	<path
   id="path2308"
   d="m 1813.98,1000.01 1.02,-0.03 v 9.96 l -1,0.08 c 0.04,-3.32 -0.17,-6.75 -0.02,-10.01 z"
   fill="#fdc4c6" />
	<path
   id="path2310"
   d="m 0,1005.01 1.01,-0.02 c 0.01,3.02 -0.02,5.93 -0.03,9.02 L 0,1013.98 Z"
   fill="#febec0" />
	<path
   id="path2312"
   d="m 1729.02,1005 h 0.97 c -0.16,9.7 0.77,19.51 -0.84,29.14 -0.1,-4.83 -0.22,-9.58 -0.34,-14.36 0.2599,-4.92 0.08,-9.89 0.21,-14.78 z"
   fill="#aa4645" />
	<path
   id="path2314"
   d="m 87.25,1007.77 c 0.29,3.79 0.46,7.61 0.52,11.46 -0.36,-3.84 -0.54,-7.66 -0.52,-11.46 z"
   fill="#e29596" />
	<path
   id="path2316"
   d="m 1813.11,1022.21 c 0.04,-3.14 0.22,-6.37 0.74,-9.43 0.1,3.18 -0.4101,6.23 -0.74,9.43 z"
   fill="#efa7a8" />
	<path
   id="path2318"
   d="m 1.09,1016.66 0.85,0.44 c -0.03,2.97 -0.09,6.13 -0.24,9.17 -0.83,-3.12 -0.6,-6.48 -0.61,-9.61 z"
   fill="#e5a5a3" />
	<path
   id="path2320"
   d="m 1.94,1017.1 c 1.56,0.4901 0.78,2.64 1.13,3.87 0.22,16.78 3.66,33.35 3.88,50.11 L 6.18,1071 c -0.45,-3.99 -0.91,-7.97 -1.41,-11.92 0.61,-1.73 0.79,-3.76 -0.56,-5.1699 -0.14,-1.61 -0.25,-3.2001 -0.38,-4.78 -0.17,-1.5699 -0.5,-4.7 -0.67,-6.27 -0.1,-1.26 -0.19,-2.51 -0.28,-3.75 1.27,-2.9399 1.02,-5.35 -0.73,-7.22 -0.13,-1.89 -0.26,-3.76 -0.45,-5.62 0.15,-3.0401 0.21,-6.2001 0.24,-9.1701 z"
   fill="#b34242" />
	<path
   id="path2322"
   d="m 1728.28,1036.3101 c -0.24,-5.54 -0.36,-11.0701 0.53,-16.53 0.12,4.78 0.24,9.53 0.34,14.36 -0.2199,0.5498 -0.66,1.6299 -0.87,2.17 z"
   fill="#eda6a4" />
	<path
   id="path2324"
   d="m 88.33,1024.72 c 0.48,2.8301 0.29,5.61 0.35,8.5601 -0.48,-2.8301 -0.31,-5.8001 -0.35,-8.5601 z"
   fill="#e2a9a7" />
	<path
   id="path2326"
   d="m 1812.1801,1035.23 c -0.1801,-3.48 -0.02,-7.04 0.6899,-10.4399 0.15,3.5099 -0.25,6.9299 -0.6899,10.4399 z"
   fill="#d58d90" />
	<path
   id="path2328"
   d="m 2.15,1031.89 c 1.75,1.87 2,4.28 0.73,7.22 -1.8,-1.94 -2.04,-4.34 -0.73,-7.22 z"
   fill="#eda5a3" />
	<path
   id="path2330"
   d="m 89.15,1038.89 c 1.77,1.87 2,4.28 0.68,7.23 -1.74,-1.98 -1.97,-4.39 -0.68,-7.23 z"
   fill="#e79596" />
	<path
   id="path2332"
   d="m 1811.15,1048.2 c 0.16,-2.7899 0.25,-5.71 0.7,-8.4099 -0.09,2.8299 -0.58,5.52 -0.7,8.4099 z"
   fill="#eaa0a2" />
	<path
   id="path2334"
   d="m 3.16,1042.86 c 0.17,1.5701 0.5,4.7001 0.67,6.27 -0.17,-1.5699 -0.5,-4.6999 -0.67,-6.27 z"
   fill="#e7a7aa" />
	<path
   id="path2336"
   d="m 1727.16,1057.23 c -0.15,-3.49 0.04,-7.04 0.6799,-10.45 0.2001,3.51 -0.1899,6.94 -0.6799,10.45 z"
   fill="#d08b8d" />
	<path
   id="path2338"
   d="m 1810.24,1058.1 c -0.65,-1.73 -0.8199,-3.78 0.55,-5.1899 0.56,1.6999 0.72,3.7299 -0.55,5.1899 z"
   fill="#e8aeab" />
	<path
   id="path2340"
   d="m 4.21,1053.91 c 1.35,1.4099 1.17,3.4399 0.56,5.1699 C 3.46,1057.63 3.61,1055.61 4.21,1053.91 Z"
   fill="#f6aead" />
	<path
   id="path2342"
   d="m 91.19,1058.86 c 0.16,1.5701 0.48,4.7001 0.64,6.27 -0.16,-1.5699 -0.48,-4.6999 -0.64,-6.27 z"
   fill="#f1aaac" />
	<path
   id="path2344"
   d="m 1726.16,1069.21 c 0.12,-2.7999 0.25,-5.72 0.7,-8.4199 -0.11,2.8299 -0.59,5.52 -0.7,8.4199 z"
   fill="#efa2a5" />
	<path
   id="path2346"
   d="m 1809.17,1067.13 c 0.1599,-1.5699 0.48,-4.72 0.64,-6.29 -0.16,1.57 -0.48,4.7201 -0.64,6.29 z"
   fill="#de8c8c" />
	<path
   id="path2348"
   d="m 92.21,1069.91 c 1.37,1.4099 1.17,3.47 0.51,5.1899 -1.24,-1.4899 -1.1,-3.4899 -0.51,-5.1899 z"
   fill="#d18d8b" />
	<path
   id="path2350"
   d="m 6.18,1071 0.77,0.08 c 0.29,1.3401 0.23,2.6901 -0.18,4.04 -1.01,-1.14 -1.25,-2.76 -0.59,-4.12 z"
   fill="#f19fa5" />
	<path
   id="path2352"
   d="m 1808.24,1077.08 c -0.65,-1.72 -0.8199,-3.76 0.55,-5.1699 0.57,1.6999 0.73,3.7199 -0.55,5.1699 z"
   fill="#e7adae" />
	<path
   id="path2354"
   d="m 1725.1899,1083.22 c 0.1101,-2.7999 0.2201,-5.72 0.65,-8.4299 -0.07,2.8399 -0.5499,5.5298 -0.65,8.4299 z"
   fill="#dc9998" />
	<path
   id="path2356"
   d="m 770.03,1168.02 c 26.96,-35.46 60.8,-64.88 95.87,-92.04 2.81,13.39 4.5699,27.46 6.1,41.1801 -0.23,1.2899 -0.08,2.63 0.54,3.83 0.91,4.27 1.52,8.75 1.45,13.17 -0.22,1.2899 -0.07,2.64 0.56,3.83 0.72,1.96 0.41,4.13 0.39,6.2 0.14,1.4301 0.42,4.29 0.56,5.7201 0.13,1.8199 0.39,5.46 0.51,7.2799 -0.22,1.5901 -0.11,3.2401 0.51,4.77 0.6,1.9401 0.42,4.03 0.51,6.0601 0.03,3.73 0.25,7.48 0.67,11.24 0.39,13.13 0.64,26.34 0.04,39.48 -0.4,2.64 -0.67,5.52 -0.77,8.27 -1.23,20.52 -5.72,41.9399 -18.1899,58.77 -6.2401,6.72 -14.61,12.4299 -23.96,13.23 -1.62,-0.21 -3.27,-0.13 -4.78,0.52 -1.66,0.71 -3.46,0.38 -5.13,-0.01 -1.43,-0.14 -4.3,-0.4301 -5.73,-0.5701 -17.17,-1.4099 -32.74,-10.26 -47.26,-18.86 -12.75,-9.5399 -25.25,-22.74 -26.92,-39.25 0.2,-1.33 0.06,-2.6599 -0.55,-3.8199 -0.72,-3.59 -0.85,-7.47 0.01,-11.03 0.6,-1.2 0.73,-2.54 0.55,-3.83 C 747.41,1202.11 758.67,1184.28 770.03,1168.02 Z"
   fill="#1f1a17" />
	<path
   id="path2358"
   d="m 7.24,1076.86 c 1.29,1.47 1.13,3.5 0.52,5.25 -1.3,-1.48 -1.13,-3.53 -0.52,-5.25 z"
   fill="#d5898b" />
	<path
   id="path2360"
   d="m 8.24,1084.88 c 1.33,1.45 1.13,3.5 0.47,5.23 -1.24,-1.51 -1.09,-3.52 -0.47,-5.23 z"
   fill="#ed9da1" />
	<path
   id="path2362"
   d="m 952.17,1084.91 c 40.93,35.27 82.9,72.6799 106.86,122.08 3.49,8.03 7.3199,16.3201 7.95,25.17 -0.2,1.2799 -0.06,2.63 0.5801,3.8199 1.6299,11.84 -0.38,24.53 -6.79,34.8 -14.99,23.4399 -43.12,35.46 -69.77,39.25 -4.38,-0.08 -8.7,-0.04 -13.04,-0.02 -27.83,-2.3201 -39.35,-33.28 -40.96,-57.1801 0.2,-1.3199 0.05,-2.6499 -0.54,-3.8199 -0.11,-0.75 -0.32,-2.24 -0.43,-2.99 -0.23,-2.89 -0.21,-5.5701 -0.61,-8.34 -0.79,-10.4601 -0.57,-20.9801 -0.13,-31.4301 0.25,-3.17 0.66,-6.15 0.79,-9.27 0.1,-0.77 0.28,-2.3099 0.37,-3.08 0.61,-2.25 0.8,-4.47 0.58,-6.67 -0.13,-2.1 -0.2401,-4.27 0.45,-6.27 0.61,-1.5299 0.69,-3.1799 0.51,-4.7799 0.14,-4.0801 0.47,-8.25 1.47,-12.1901 0.59,-1.2 0.72,-2.54 0.56,-3.8199 0.16,-6.14 1.05,-12.2201 2.49,-18.17 0.53,-1.22 0.67,-2.5601 0.5,-3.84 1.7499,-17.9199 6.3399,-35.47 9.1599,-53.2499 z"
   fill="#1f1a17" />
	<path
   id="path2364"
   d="m 1806.2,1092.11 c -0.62,-1.4299 -0.7,-3.17 0.5901,-4.23 0.5699,1.39 0.6599,3.14 -0.5901,4.23 z"
   fill="#d39193" />
	<path
   id="path2366"
   d="m 10.24,1097.87 c 1.23,1.1 1.15,2.83 0.52,4.26 -1.25,-1.12 -1.14,-2.88 -0.52,-4.26 z"
   fill="#e19293" />
	<path
   id="path2368"
   d="m 1723.16,1104.13 c 0.1699,-1.5699 0.5,-4.7 0.6599,-6.27 -0.1599,1.5701 -0.4899,4.7001 -0.6599,6.27 z"
   fill="#dd989e" />
	<path
   id="path2370"
   d="m 1804.24,1107.12 c -0.64,-1.74 -0.8,-3.77 0.52,-5.22 0.59,1.7 0.77,3.74 -0.52,5.22 z"
   fill="#d08283" />
	<path
   id="path2372"
   d="m 97.18,1105.88 c 1.32,1.04 1.2,2.8199 0.58,4.24 -1.21,-1.12 -1.16,-2.84 -0.58,-4.24 z"
   fill="#eea6a7" />
	<path
   id="path2374"
   d="m 1722.17,1115.15 c 0.1699,-1.5701 0.5,-4.7101 0.6699,-6.28 -0.1699,1.5699 -0.4999,4.71 -0.6699,6.28 z"
   fill="#d57c7f" />
	<path
   id="path2376"
   d="m 1803.27,1115.11 c -0.67,-1.74 -0.85,-3.78 0.49,-5.23 0.59,1.71 0.75,3.73 -0.49,5.23 z"
   fill="#e4959a" />
	<path
   id="path2378"
   d="m 872,1117.16 c 1.83,-0.17 1.64,2.98 0.54,3.83 -0.62,-1.2 -0.77,-2.54 -0.54,-3.83 z"
   fill="#8c8c8a" />
	<path
   id="path2380"
   d="m 1721.16,1122.09 c -0.5801,-1.4299 -0.65,-3.1899 0.6899,-4.2 0.5201,1.39 0.59,3.15 -0.6899,4.2 z"
   fill="#d5938f" />
	<path
   id="path2382"
   d="m 1801.16,1128.15 c -0.5901,-1.4501 -0.62,-3.15 0.59,-4.27 0.59,1.39 0.72,3.2 -0.59,4.27 z"
   fill="#ed9d9d" />
	<path
   id="path2384"
   d="m 1800.25,1135.1 c -0.65,-1.74 -0.8101,-3.78 0.52,-5.23 0.58,1.71 0.75,3.75 -0.52,5.23 z"
   fill="#e8adac" />
	<path
   id="path2386"
   d="m 873.99,1134.16 c 1.83,-0.16 1.65,2.97 0.56,3.83 -0.63,-1.19 -0.78,-2.54 -0.56,-3.83 z"
   fill="#a3a2a0" />
	<path
   id="path2388"
   d="m 942.51,1142 c -1.18,-0.83 -1.38,-4.02 0.5,-3.84 0.17,1.2799 0.03,2.62 -0.5,3.84 z"
   fill="#94908f" />
	<path
   id="path2390"
   d="m 18.13,1141.91 c 1.39,0.98 1.25,2.7899 0.65,4.21 -1.19,-1.11 -1.19,-2.8099 -0.65,-4.21 z"
   fill="#e58f92" />
	<path
   id="path2392"
   d="m 1798.22,1146.13 c -0.64,-1.4301 -0.7,-3.14 0.5,-4.27 0.63,1.38 0.76,3.16 -0.5,4.27 z"
   fill="#dc9c97" />
	<path
   id="path2394"
   d="m 874.94,1144.1899 c 2.27,0.28 1.8,4.3401 0.56,5.7201 -0.14,-1.43 -0.42,-4.29 -0.56,-5.7201 z"
   fill="#848381" />
	<path
   id="path2396"
   d="m 1717.25,1154.11 c -0.65,-1.73 -0.8101,-3.74 0.46,-5.21 0.64,1.68 0.84,3.73 -0.46,5.21 z"
   fill="#d59a93" />
	<path
   id="path2398"
   d="m 876.01,1157.1899 c 1.98,0.14 1.54,3.6201 0.51,4.77 -0.62,-1.5298 -0.73,-3.1799 -0.51,-4.77 z"
   fill="#72716f" />
	<path
   id="path2400"
   d="m 939.46,1163.99 c -1.15,-0.85 -1.31,-4.01 0.56,-3.8199 0.16,1.2799 0.03,2.6199 -0.56,3.8199 z"
   fill="#72716f" />
	<path
   id="path2402"
   d="m 877.03,1168.02 c 1.25,2.7999 1.47,6.54 0.67,11.24 -0.42,-3.76 -0.64,-7.51 -0.67,-11.24 z"
   fill="#949391" />
	<path
   id="path2404"
   d="m 937.48,1180.96 c -1.06,-1.1499 -1.49,-4.63 0.51,-4.7799 0.18,1.5999 0.1,3.25 -0.51,4.7799 z"
   fill="#959394" />
	<path
   id="path2406"
   d="m 936.45,1193.9 c -0.99,-1.77 -1.73,-5.98 0.58,-6.67 0.22,2.2001 0.03,4.42 -0.58,6.67 z"
   fill="#767271" />
	<path
   id="path2408"
   d="m 935.29,1206.25 c 0.69,-2.54 -1.89,-8.3101 0.79,-9.27 -0.13,3.12 -0.54,6.1 -0.79,9.27 z"
   fill="#b7b6b4" />
	<path
   id="path2410"
   d="m 1787.15,1203.1 c -0.59,-1.4399 -0.6,-3.15 0.64,-4.22 0.57,1.38 0.69,3.1801 -0.64,4.22 z"
   fill="#e5969b" />
	<path
   id="path2412"
   d="m 876.97,1227.01 c 0.1,-2.75 0.3701,-5.63 0.77,-8.27 -0.28,2.4499 1.58,7.3299 -0.77,8.27 z"
   fill="#9a9997" />
	<path
   id="path2414"
   d="m 744.46,1225.99 c -1.13,-0.86 -1.3,-4 0.55,-3.83 0.18,1.29 0.05,2.63 -0.55,3.83 z"
   fill="#878583" />
	<path
   id="path2416"
   d="m 1066.98,1232.16 c 1.8301,-0.1801 1.6801,2.96 0.5801,3.8199 -0.6401,-1.1899 -0.7801,-2.54 -0.5801,-3.8199 z"
   fill="#a19d9c" />
	<path
   id="path2418"
   d="m 744.45,1237.02 c 0.61,1.16 0.75,2.49 0.55,3.8199 -1.84,0.1301 -1.68,-3.0099 -0.55,-3.8199 z"
   fill="#868583" />
	<path
   id="path2420"
   d="m 935.42,1237.6801 c 0.4,2.7699 0.38,5.45 0.61,8.34 -2.37,-0.9901 -0.57,-5.8901 -0.61,-8.34 z"
   fill="#a9a8a7" />
	<path
   id="path2422"
   d="m 936.46,1249.01 c 0.59,1.17 0.74,2.5 0.54,3.8199 -1.85,0.1401 -1.68,-3.01 -0.54,-3.8199 z"
   fill="#777674" />
	<path
   id="path2424"
   d="m 819.18,1298.95 c 1.43,0.14 4.3,0.4301 5.73,0.5701 -1.38,1.2199 -5.42,1.6698 -5.73,-0.5701 z"
   fill="#7a7977" />
	<path
   id="path2426"
   d="m 830.04,1299.53 c 1.51,-0.65 3.16,-0.73 4.78,-0.52 -0.17,1.96 -3.65,1.54 -4.78,0.52 z"
   fill="#807d7b" />
	<path
   id="path2428"
   d="m 977.96,1310.01 c 4.34,-0.02 8.66,-0.06 13.04,0.02 -1.7,1.2801 -11.04,2.42 -13.04,-0.02 z"
   fill="#7e7d7b" />
	<path
   id="path2430"
   d="m 1614.9301,1483.95 c 2.8999,-6.9099 6.21,-13.6499 9.96,-20.1399 -1.7301,7.3199 -5.3401,14.2299 -9.96,20.1399 z"
   fill="#b34749" />
	<path
   id="path2432"
   d="m 941.71,1720.64 c 7.73,-1.47 15.74,-0.73 23.53,0.1 -7.86,0.24 -15.7,0.34 -23.53,-0.1 z"
   fill="#f3a9aa" />
	<path
   id="path2434"
   d="m 924.77,1723.76 c 5.53,-1.62 11.25,-2.3101 16.94,-3.12 7.83,0.4399 15.67,0.34 23.53,0.1 6.01,0.84 11.97,1.98 17.96,3.0701 -19.44,-2.1801 -39,-2.3301 -58.43,-0.05 z"
   fill="#b34a4b" />
	<path
   id="path2436"
   d="m 1115.87,1749.1801 c 1.5601,0.1599 4.7,0.48 6.27,0.6399 -1.5701,-0.16 -4.7099,-0.48 -6.27,-0.6399 z"
   fill="#e1a0a2" />
	<path
   id="path2438"
   d="m 1254.85,1749.76 c 1.5801,-0.13 4.73,-0.39 6.3101,-0.52 -1.5801,0.13 -4.73,0.39 -6.3101,0.52 z"
   fill="#da9692" />
	<path
   id="path2440"
   d="m 1134.9399,1751.38 c 2.2101,-1.45 4.5901,-1.35 7.14,0.3099 -2.26,1.25 -4.64,1.1501 -7.14,-0.3099 z"
   fill="#d69495" />
	<path
   id="path2442"
   d="m 1237.89,1751.87 c 1.83,-1.89 4.25,-2.12 7.24,-0.67 -2.03,1.6101 -4.4401,1.84 -7.24,0.67 z"
   fill="#c5787d" />
	<path
   id="path2444"
   d="m 1147.64,1752.25 c 3.85,-0.03 7.71,0.13 11.6,0.47 -3.5,-0.04 -6.8,0.39 -10.23,0.3 -0.34,-0.19 -1.02,-0.5801 -1.37,-0.77 z"
   fill="#f1a6a7" />
	<path
   id="path2446"
   d="m 1221.71,1752.63 c 3.49,-0.8 6.9401,-0.64 10.5601,-0.39 -1.34,0.37 -2.66,0.77 -3.99,1.11 -2.2102,-0.23 -4.3901,-0.5 -6.5701,-0.72 z"
   fill="#e68e91" />
	<path
   id="path2448"
   d="m 1149.01,1753.02 c 3.4299,0.09 6.73,-0.34 10.23,-0.3 5.48,0.17 10.99,0.29 16.53,0.51 10.09,1.16 20.34,1.16 30.46,0 5.16,-0.3199 10.28,-0.39 15.48,-0.6 2.1801,0.22 4.36,0.49 6.5701,0.72 -26.2601,2.8399 -53.1,2.2199 -79.2701,-0.33 z"
   fill="#b03f3f" />
	<path
   id="path2450"
   d="m 1175.77,1753.23 c 10.14,-0.46 20.29,-0.25 30.46,0 -10.12,1.16 -20.37,1.16 -30.46,0 z"
   fill="#efaeac" />
	<path
   id="path2452"
   d="m 741.87,1774.78 c 1.08,-1.29 2.84,-1.2001 4.26,-0.53 -1.13,1.1899 -2.87,1.11 -4.26,0.53 z"
   fill="#eda0a2" />
	<path
   id="path2454"
   d="m 727.9,1776.76 c 1.44,-1.35 3.49,-1.16 5.21,-0.46 -1.5,1.21 -3.51,1.05 -5.21,0.46 z"
   fill="#e69597" />
	<path
   id="path2456"
   d="m 617.94,1779.36 c 2.24,-1.45 4.62,-1.33 7.14,0.37 -2.26,1.2001 -4.64,1.0801 -7.14,-0.37 z"
   fill="#e7aba8" />
	<path
   id="path2458"
   d="m 698.91,1779.88 c 1.84,-1.89 4.2401,-2.13 7.21,-0.73 -1.95,1.6699 -4.35,1.9199 -7.21,0.73 z"
   fill="#e49fa2" />
	<path
   id="path2460"
   d="m 632.77,1780.23 c 5.08,-0.33 10.21,-0.4 15.23,0.79 -5.08,-0.03 -10.2,-0.26 -15.23,-0.79 z"
   fill="#fabfbb" />
	<path
   id="path2462"
   d="m 678.9,1780.87 c 4,-1.0599 8.2,-0.66 12.3199,-0.6801 -3.72,0.3601 -7.43,0.7101 -11.12,1.0601 z"
   fill="#f6b2b2" />
	<path
   id="path2464"
   d="m 648,1781.02 c 10.3,0.02 20.59,-0.02 30.9,-0.15 l 1.2,0.38 c -10.57,1.51 -21.53,1.12 -32.1,-0.23 z"
   fill="#bb6a66" />
	<path
   id="path2466"
   d="m 944.7,1799.61 c 7.45,-1.1799 15.06,-0.77 22.54,0.12 -7.53,0.24 -15.05,0.29 -22.54,-0.12 z"
   fill="#dd7e7c" />
	<path
   id="path2468"
   d="m 932.9,1800.72 c 1.46,-1.27 3.46,-1.13 5.18,-0.49 -1.44,1.3301 -3.5,1.13 -5.18,0.49 z"
   fill="#da8d90" />
	<path
   id="path2470"
   d="m 973.93,1800.3199 c 2.19,-1.38 4.57,-1.2799 7.15,0.3101 -2.27,1.33 -4.65,1.22 -7.15,-0.3101 z"
   fill="#d5908c" />
	<path
   id="path2472"
   d="m 992.92,1802.27 c 1.67,-0.6901 3.85,-0.9301 5.08,0.73 -1.73,0.38 -3.64,0.42 -5.08,-0.73 z"
   fill="#d48c8e" />
	<path
   id="path2474"
   d="m 998,1803 c 1.71,-0.4301 3.61,-0.4399 5.11,0.6899 -1.7,0.6701 -3.89,0.9501 -5.11,-0.6899 z"
   fill="#eba2a6" />
	<path
   id="path2476"
   d="m 1009.87,1805.2 c 1.4,-0.62 3.14,-0.6899 4.26,0.5801 -1.43,0.5799 -3.19,0.6699 -4.26,-0.5801 z"
   fill="#e09795" />
	<path
   id="path2478"
   d="m 1069.88,1817.17 c 1.4,-0.6001 3.12,-0.64 4.25,0.59 -1.43,0.59 -3.21,0.71 -4.25,-0.59 z"
   fill="#f1a1a1" />
	<path
   id="path2480"
   d="m 1081.87,1819.24 c 1.38,-0.66 3.14,-0.75 4.25,0.53 -1.42,0.58 -3.16,0.68 -4.25,-0.53 z"
   fill="#eb979a" />
	<path
   id="path2482"
   d="m 1095.88,1821.23 c 1.39,-0.63 3.2,-0.76 4.25,0.61 -1.4401,0.53 -3.15,0.57 -4.25,-0.61 z"
   fill="#ec9798" />
	<path
   id="path2484"
   d="m 1299.88,1821.8 c 1.05,-1.3201 2.83,-1.2101 4.25,-0.55 -1.13,1.1801 -2.86,1.11 -4.25,0.55 z"
   fill="#ebaaa6" />
	<path
   id="path2486"
   d="m 1102.89,1822.23 c 1.7,-0.63 3.73,-0.79 5.21,0.51 -1.73,0.61 -3.7801,0.8 -5.21,-0.51 z"
   fill="#e3a1a4" />
	<path
   id="path2488"
   d="m 1119.91,1824.27 c 1.6899,-0.6801 3.74,-0.85 5.1899,0.49 -1.7199,0.59 -3.7299,0.76 -5.1899,-0.49 z"
   fill="#d6918f" />
	<path
   id="path2490"
   d="m 1127.84,1825.1899 c 1.5701,0.16 4.7201,0.4701 6.29,0.63 -1.5699,-0.1599 -4.72,-0.4699 -6.29,-0.63 z"
   fill="#f0a1a0" />
	<path
   id="path2492"
   d="m 1139.92,1826.29 c 2.2,-1.3501 4.58,-1.23 7.14,0.37 -2.31,1.3 -4.68,1.18 -7.14,-0.37 z"
   fill="#d58f8f" />
	<path
   id="path2494"
   d="m 1258.88,1826.85 c 1.86,-1.85 4.28,-2.08 7.24,-0.6899 -1.98,1.6699 -4.4,1.9 -7.24,0.6899 z"
   fill="#da9d97" />
	<path
   id="path2496"
   d="m 1246.71,1827.63 c 2.8501,-0.37 5.6001,-0.41 8.5801,-0.29 -2.8301,0.51 -5.8301,0.1 -8.5801,0.29 z"
   fill="#eb9d9f" />
	<path
   id="path2498"
   d="m 1166.78,1828.25 c 4.39,-0.13 8.77,-0.3 13.21,-0.24 l 0.02,1 c -4.43,-0.03 -8.88,-0.39 -13.23,-0.76 z"
   fill="#e29fa1" />
	<path
   id="path2500"
   d="m 1179.99,1828.01 c 18.76,0.06 37.53,-0.3101 56.29,0.3199 -4.6,0.9801 -9.39,0.61 -14,1.04 -12.17,-0.51 -24.35,-0.6 -36.5,-0.17 -1.9301,-0.11 -3.86,-0.1599 -5.77,-0.1899 z"
   fill="#b15251" />
	<path
   id="path2502"
   d="m 946.9,1829.7 c 1.49,-1.1899 3.44,-1.11 5.18,-0.59 -1.36,1.49 -3.49,1.24 -5.18,0.59 z"
   fill="#6e6c6a" />
	<path
   id="path2504"
   d="m 952.08,1829.11 c 23.38,-1.67 44.43,11.01 62.67,24.16 14.54,11.7 29.71,25.1 35.62,43.4299 -0.07,2.76 -0.13,5.5701 -0.1899,8.4501 -6.1901,12.1699 -24.03,14.22 -34.2101,5.89 -8.84,-5.11 -15.02,-17.63 -26.62,-15.88 -8,7.84 -8.58,22.4099 -21.7599,24.84 h -8.52 c -0.78,-1.55 -2.81,-1.6801 -4.06,-0.7 -4.61,-1.1001 -9.75,-2.7001 -12.41,-6.92 -4.86,-10.23 -16.15,-15.12 -26.5,-17.88 -2.4,-1.4301 -4.49,-1.4301 -6.2599,0.01 -4.61,2.59 -9.01,5.52 -13.64,8.08 -1.51,-1.39 -3.83,-1.36 -5.35,-0.06 -8.25,-3.0901 -18.4,-6 -21.31,-15.39 1.11,-1.98 1,-4.33 -0.04,-6.26 2.91,-8.61 8.37,-16.24 15.27,-22.11 17.66,-14.87 39.03,-26.0601 62.13,-29.0701 1.6898,0.65 3.8198,0.9 5.1798,-0.59 z"
   fill="#1f1a18" />
	<path
   id="path2506"
   d="m 1185.78,1829.2 c 12.15,-0.4299 24.33,-0.34 36.5,0.17 -12.14,1 -24.4,1.09 -36.5,-0.17 z"
   fill="#ffd4d4" />
	<path
   id="path2508"
   d="m 765.86,1846.83 c 1.05,-1.34 2.83,-1.25 4.26,-0.61 -1.13,1.18 -2.85,1.16 -4.26,0.61 z"
   fill="#e09798" />
	<path
   id="path2510"
   d="m 760.86,1847.83 c 1.08,-1.2899 2.83,-1.2699 4.28,-0.6499 -1.1,1.2299 -2.86,1.1899 -4.28,0.6499 z"
   fill="#eb9b9d" />
	<path
   id="path2512"
   d="m 755.86,1848.84 c 1.08,-1.2999 2.83,-1.27 4.28,-0.6699 -1.09,1.2499 -2.85,1.1899 -4.28,0.6699 z"
   fill="#e3a4a1" />
	<path
   id="path2514"
   d="m 749.88,1849.79 c 1.09,-1.25 2.82,-1.2201 4.26,-0.64 -1.06,1.31 -2.85,1.2 -4.26,0.64 z"
   fill="#f0a2a2" />
	<path
   id="path2516"
   d="m 549.88,1850.21 c 1.41,-0.63 3.19,-0.72 4.26,0.63 -1.44,0.54 -3.16,0.56 -4.26,-0.63 z"
   fill="#d89695" />
	<path
   id="path2518"
   d="m 554.86,1851.16 c 1.42,-0.6 3.14,-0.62 4.26,0.61 -1.42,0.58 -3.21,0.69 -4.26,-0.61 z"
   fill="#ee989e" />
	<path
   id="path2520"
   d="m 729.85,1852.8101 c 1.4301,-1.41 3.52,-1.2101 5.25,-0.53 -1.51,1.1899 -3.52,1.0699 -5.25,0.53 z"
   fill="#d3918e" />
	<path
   id="path2522"
   d="m 723.91,1853.76 c 1.47,-1.29 3.4901,-1.16 5.2401,-0.5701 -1.4501,1.3501 -3.5201,1.1601 -5.2401,0.5701 z"
   fill="#f3aaa9" />
	<path
   id="path2524"
   d="m 714.92,1854.8 c 1.41,-1.38 3.46,-1.2101 5.18,-0.5701 -1.45,1.2901 -3.47,1.1201 -5.18,0.5701 z"
   fill="#d28f90" />
	<path
   id="path2526"
   d="m 581.89,1855.2 c 1.39,-0.62 3.16,-0.71 4.22,0.62 -1.42,0.54 -3.16,0.6199 -4.22,-0.62 z"
   fill="#eda4a3" />
	<path
   id="path2528"
   d="m 695.89,1856.8199 c 1.04,-1.3099 2.79,-1.25 4.22,-0.6399 -1.06,1.2599 -2.82,1.18 -4.22,0.6399 z"
   fill="#d59293" />
	<path
   id="path2530"
   d="m 600.94,1857.36 c 2.25,-1.45 4.63,-1.3199 7.14,0.38 -2.26,1.1901 -4.64,1.06 -7.14,-0.38 z"
   fill="#fbb2b1" />
	<path
   id="path2532"
   d="m 679.73,1857.72 c 3.43,-1.09 6.99,-0.6599 10.55,-0.39 -3.44,0.95 -7.08,0.39 -10.55,0.39 z"
   fill="#e3878c" />
	<path
   id="path2534"
   d="m 616.77,1858.24 c 5.07,-0.24 10.13,-0.3199 15.23,-0.24 v 1.01 c -5.08,0.12 -10.19,-0.31 -15.23,-0.77 z"
   fill="#de9d9e" />
	<path
   id="path2536"
   d="m 632,1858 c 11.99,-0.03 23.98,-0.05 35.98,0.01 l 0.04,1.01 c -12.01,-0.01 -24.02,-0.06 -36.02,-0.01 z"
   fill="#b66260" />
	<path
   id="path2538"
   d="m 667.98,1858.01 c 3.1,0.04 6.13,0.04 9.29,0.3 -2.99,0.9199 -6.21,0.5299 -9.25,0.71 z"
   fill="#f3baba" />
	<path
   id="path2540"
   d="m 869.54,1887.14 c -1.42,-1.9 -1.44,-3.98 -0.04,-6.26 1.04,1.9301 1.15,4.28 0.04,6.26 z"
   fill="#a2a19f" />
	<path
   id="path2542"
   d="m 909.84,1894.51 c 1.77,-1.4401 3.86,-1.4401 6.2599,-0.01 -1.9599,1.04 -4.3299,1.17 -6.2599,0.01 z"
   fill="#959492" />
	<path
   id="path2544"
   d="m 1050.37,1896.7 c 1.0699,2.77 0.4401,5.5 -0.1899,8.4501 0.06,-2.8801 0.1199,-5.6901 0.1899,-8.4501 z"
   fill="#c1c0be" />
	<path
   id="path2546"
   d="m 890.85,1902.53 c 1.52,-1.3 3.84,-1.3301 5.35,0.06 -1.34,-0.02 -4.02,-0.04 -5.35,-0.06 z"
   fill="#8a8687" />
	<path
   id="path2548"
   d="m 955.01,1919.3 c 1.25,-0.9801 3.28,-0.8501 4.06,0.7 h -3.78 z"
   fill="#9a9492" />
</g>
</svg>
